<?xml version="1.0" encoding="UTF-8"?>
<!-- Generator: Adobe Illustrator 23.0.3, SVG Export Plug-In . SVG Version: 6.00 Build 0)  -->
<svg xmlns="http://www.w3.org/2000/svg" xmlns:xlink="http://www.w3.org/1999/xlink" version="1.1" id="Calque_1" x="0px" y="0px" width="1200px" height="324.3876px" viewBox="0 0 1200 324.3876" style="enable-background:new 0 0 1200 324.3876;" xml:space="preserve">
<style type="text/css">
	.st0{fill:#444444;}
	.st1{fill:#E23A1A;}
	.st2{fill:#FFFFFF;}
</style>
<g>
	<g>
		<path class="st0" d="M88.1338,142.4922H7.7498c-1.9977,0-3.4484-0.4519-4.3284-1.3318c-0.9037-0.9037-1.3556-2.3544-1.3556-4.3521    V34.4733c0-1.9977,0.4519-3.4484,1.3556-4.3284c0.8799-0.9037,2.3307-1.3556,4.3284-1.3556h24.4719    c1.9977,0,3.4484,0.4519,4.3521,1.3556c0.9037,0.8799,1.3318,2.3307,1.3318,4.3284v78.1722h21.6418V87.0558    c0-1.9977,0.4519-3.4484,1.3556-4.3284c0.8799-0.9037,2.3307-1.3556,4.3284-1.3556h22.9023c1.9977,0,3.4484,0.4519,4.3521,1.3556    c0.8799,0.8799,1.3318,2.3307,1.3318,4.3284v49.7524c0,1.9977-0.4519,3.4484-1.3318,4.3521    C91.5822,142.0404,90.1315,142.4922,88.1338,142.4922z"></path>
		<path class="st0" d="M203.0972,112.6455c0,4.8516-0.7135,9.2275-2.1404,13.1754c-1.4269,3.9478-3.9478,7.3249-7.5865,10.1075    c-3.6387,2.8063-8.6329,4.9943-15.0066,6.5639c-6.3736,1.5696-14.4358,2.3782-24.2341,2.3782s-17.8842-0.8086-24.3055-2.3782    c-6.4212-1.5696-11.463-3.7576-15.1017-6.5639c-3.6149-2.7825-6.1358-6.1596-7.5628-10.1075    c-1.4269-3.9479-2.1404-8.3238-2.1404-13.1754v-53.843c0-4.8516,0.7135-9.2513,2.1404-13.1991s3.9479-7.3249,7.5628-10.1788    c3.6387-2.8301,8.6805-5.0418,15.1017-6.6352c6.4212-1.5696,14.5072-2.3544,24.3055-2.3544s17.8605,0.7848,24.2341,2.3544    c6.3736,1.5934,11.3679,3.8052,15.0066,6.6352c3.6387,2.8539,6.1596,6.2309,7.5865,10.1788    c1.4269,3.9478,2.1404,8.3476,2.1404,13.1991V112.6455z M140.859,106.9616c0,2.1166,0.8086,3.8765,2.3782,5.2797    c1.5696,1.4269,5.2083,2.1404,10.8923,2.1404c5.684,0,9.3226-0.7135,10.8923-2.1404c1.5934-1.4032,2.3782-3.163,2.3782-5.2797    V64.4865c0-1.9977-0.7848-3.71-2.3782-5.137c-1.5696-1.4269-5.2083-2.1404-10.8923-2.1404c-5.6839,0-9.3226,0.7135-10.8923,2.1404    s-2.3782,3.1393-2.3782,5.137V106.9616z"></path>
		<path class="st0" d="M293.7313,142.4922H255.204c-13.1754,0-22.9261-2.6398-29.2997-7.8957s-9.5605-13.3656-9.5605-24.3292V61.157    c0-10.9398,3.1868-19.0734,9.5605-24.3768c6.3736-5.3272,16.1244-7.9908,29.2997-7.9908h38.5272    c1.9977,0,3.4484,0.4519,4.3284,1.3556c0.9037,0.8799,1.3556,2.3307,1.3556,4.3284v19.1209c0,1.9977-0.4519,3.4484-1.3556,4.3284    c-0.8799,0.9037-2.3307,1.3556-4.3284,1.3556H261.982c-3.2581,0-5.684,0.6421-7.2536,1.9739    c-1.5934,1.308-2.3782,3.2819-2.3782,5.9218v37.5759c0,2.6398,0.7848,4.5662,2.3782,5.7553    c1.5696,1.2129,3.9954,1.8312,7.2536,1.8312h31.7493c1.9977,0,3.4484,0.4519,4.3284,1.3318    c0.9037,0.9037,1.3556,2.3544,1.3556,4.3521v18.788c0,1.9977-0.4519,3.4484-1.3556,4.3521    C297.1797,142.0404,295.729,142.4922,293.7313,142.4922z"></path>
		<path class="st0" d="M344.435,136.8083c0,1.9977-0.4519,3.4484-1.3556,4.3521c-0.8799,0.8799-2.3307,1.3318-4.3284,1.3318    h-23.2115c-2.0215,0-3.4484-0.4519-4.3522-1.3318c-0.9037-0.9037-1.3318-2.3544-1.3318-4.3521V95.118    c0-3.163,0.4994-6.7779,1.4983-10.8923c0.9989-4.1143,2.5447-8.8946,4.6613-14.3645l13.7224-35.8636    c0.6421-1.7837,1.6172-3.0917,2.9252-3.9479c1.308-0.8324,3.0204-1.2605,5.137-1.2605h42.4751    c1.9977,0,3.6625,0.4281,4.9705,1.2605c1.308,0.8562,2.2831,2.1642,2.9252,3.9479l13.7461,35.8636    c2.0928,5.4699,3.6387,10.2501,4.6613,14.3645c0.9989,4.1143,1.4983,7.7292,1.4983,10.8923v41.6903    c0,1.9977-0.4519,3.4484-1.3556,4.3521c-0.9037,0.8799-2.3307,1.3318-4.3284,1.3318h-23.8536    c-2.1166,0-3.6625-0.4519-4.6613-1.3318c-0.9989-0.9037-1.4983-2.3544-1.4983-4.3521v-22.1175H344.435V136.8083z     M353.4247,61.9656l-7.4201,23.9963h24.8049l-7.4438-23.9963c-0.4043-0.9513-0.8562-1.641-1.3318-2.0691    c-0.4756-0.4043-1.0226-0.6183-1.6648-0.6183h-3.9478c-0.6183,0-1.1653,0.214-1.641,0.6183    C354.3046,60.3246,353.8528,61.0143,353.4247,61.9656z"></path>
		<path class="st0" d="M469.8149,142.4922h-25.5897c-1.9977,0-3.4484-0.4519-4.3521-1.3318    c-0.8799-0.9037-1.3318-2.3544-1.3318-4.3521V59.2782h-23.2115c-1.9977,0-3.4484-0.4519-4.3521-1.3556    c-0.8799-0.8799-1.3318-2.3307-1.3318-4.3284V34.4733c0-1.9977,0.4519-3.4484,1.3318-4.3284    c0.9037-0.9037,2.3544-1.3556,4.3521-1.3556h83.3805c1.9977,0,3.4484,0.4519,4.3284,1.3556    c0.9037,0.8799,1.3556,2.3307,1.3556,4.3284v19.1209c0,1.9977-0.4519,3.4484-1.3556,4.3284    c-0.8799,0.9037-2.3307,1.3556-4.3284,1.3556h-23.2115v77.5301c0,1.9977-0.4519,3.4484-1.3556,4.3521    C473.2634,142.0404,471.8127,142.4922,469.8149,142.4922z"></path>
		<path class="st0" d="M517.8075,142.4922c-1.9977,0-3.4484-0.4519-4.3521-1.3318c-0.8799-0.9037-1.3318-2.3544-1.3318-4.3521    v-18.788c0-1.9977,0.4519-3.4484,1.3318-4.3521c0.9037-0.8799,2.3544-1.3318,4.3521-1.3318h15.6249V59.2782h-15.6249    c-1.9977,0-3.4484-0.4519-4.3521-1.3556c-0.8799-0.8799-1.3318-2.3307-1.3318-4.3284V34.4733    c0-1.9977,0.4519-3.4484,1.3318-4.3284c0.9037-0.9037,2.3544-1.3556,4.3521-1.3556h67.28c1.9977,0,3.4484,0.4519,4.3284,1.3556    c0.9037,0.8799,1.3556,2.3307,1.3556,4.3284v19.1209c0,1.9977-0.4519,3.4484-1.3556,4.3284    c-0.8799,0.9037-2.3307,1.3556-4.3284,1.3556h-15.3395v53.0582h15.3395c1.9977,0,3.4484,0.4519,4.3284,1.3318    c0.9037,0.9037,1.3556,2.3544,1.3556,4.3521v18.788c0,1.9977-0.4519,3.4484-1.3556,4.3521    c-0.8799,0.8799-2.3307,1.3318-4.3284,1.3318H517.8075z"></path>
		<path class="st0" d="M701.4777,112.6455c0,4.8516-0.7134,9.2275-2.1404,13.1754c-1.4269,3.9478-3.9479,7.3249-7.5865,10.1075    c-3.6387,2.8063-8.6329,4.9943-15.0066,6.5639c-6.3737,1.5696-14.4358,2.3782-24.2341,2.3782    c-9.7983,0-17.8842-0.8086-24.3054-2.3782c-6.4212-1.5696-11.463-3.7576-15.1017-6.5639    c-3.6149-2.7825-6.1358-6.1596-7.5627-10.1075c-1.4269-3.9479-2.1404-8.3238-2.1404-13.1754v-53.843    c0-4.8516,0.7134-9.2513,2.1404-13.1991s3.9479-7.3249,7.5627-10.1788c3.6387-2.8301,8.6805-5.0418,15.1017-6.6352    c6.4212-1.5696,14.5071-2.3544,24.3054-2.3544c9.7983,0,17.8605,0.7848,24.2341,2.3544    c6.3737,1.5934,11.3679,3.8052,15.0066,6.6352c3.6387,2.8539,6.1596,6.2309,7.5865,10.1788s2.1404,8.3476,2.1404,13.1991V112.6455    z M639.2396,106.9616c0,2.1166,0.8086,3.8765,2.3782,5.2797c1.5696,1.4269,5.2083,2.1404,10.8922,2.1404    c5.684,0,9.3227-0.7135,10.8923-2.1404c1.5934-1.4032,2.3782-3.163,2.3782-5.2797V64.4865c0-1.9977-0.7848-3.71-2.3782-5.137    c-1.5696-1.4269-5.2083-2.1404-10.8923-2.1404c-5.6839,0-9.3226,0.7135-10.8922,2.1404c-1.5696,1.4269-2.3782,3.1393-2.3782,5.137    V106.9616z"></path>
		<path class="st0" d="M745.8316,142.4922h-23.6871c-1.9977,0-3.4484-0.4519-4.3284-1.3318    c-0.9037-0.9037-1.3556-2.3544-1.3556-4.3521V34.4733c0-1.9977,0.4519-3.4484,1.3556-4.3284    c0.8799-0.9037,2.3307-1.3556,4.3284-1.3556h16.4098c1.9977,0,3.71,0.333,5.137,0.9513c1.4269,0.6421,2.8063,1.7361,4.1857,3.3295    l30.6315,35.055V34.4733c0-1.9977,0.428-3.4484,1.3318-4.3284c0.9037-0.9037,2.3782-1.3556,4.3759-1.3556h23.6871    c1.9977,0,3.4246,0.4519,4.3284,1.3556c0.9037,0.8799,1.3318,2.3307,1.3318,4.3284v102.335c0,1.9977-0.4281,3.4484-1.3318,4.3521    c-0.9037,0.8799-2.3307,1.3318-4.3284,1.3318h-23.6871c-1.9977,0-3.4722-0.4519-4.3759-1.3318    c-0.9037-0.9037-1.3318-2.3544-1.3318-4.3521v-19.4301l-27.0167-32.6768v52.1069c0,1.9977-0.428,3.4484-1.3318,4.3521    C749.2562,142.0404,747.8293,142.4922,745.8316,142.4922z"></path>
	</g>
	<g>
		<rect x="2.0659" y="161.4159" class="st1" width="484.8732" height="161.6092"></rect>
		<path class="st2" d="M96.8619,283.4035H52.9428c-1.445,0-2.4873-0.3317-3.1506-0.9713c-0.6396-0.6396-0.9712-1.7056-0.9712-3.1506    v-74.1223c0-1.445,0.3316-2.4873,0.9712-3.1506c0.6633-0.6396,1.7056-0.9712,3.1506-0.9712h36.5045    c7.462,0,12.9815,1.4213,16.5822,4.2877c3.577,2.8663,5.3774,7.2725,5.3774,13.2184v5.4958c0,3.198-0.5685,5.8038-1.6582,7.841    c-1.1134,2.0135-2.819,3.506-5.0931,4.5009c4.8799,0.4738,8.5043,2.132,10.8732,5.0457c2.3452,2.89,3.5296,7.1303,3.5296,12.6972    v10.5178c0,6.396-1.8004,11.1338-5.4247,14.1896C110.0092,281.8874,104.4186,283.4035,96.8619,283.4035z M74.5707,220.486v12.3656    h9.7124c1.445,0,2.5347-0.4027,3.2691-1.1608c0.7107-0.758,1.0897-1.8951,1.0897-3.4349v-3.198    c0-1.5161-0.379-2.6532-1.0897-3.4349c-0.7344-0.758-1.824-1.1371-3.2691-1.1371H74.5707z M74.5707,250.4523v13.5026h14.8766    c1.445,0,2.5347-0.379,3.2454-1.1371c0.7344-0.758,1.0897-1.9188,1.0897-3.4349v-4.4535c0-1.5398-0.3553-2.6532-1.0897-3.3875    c-0.7107-0.7107-1.8004-1.0897-3.2454-1.0897H74.5707z"></path>
		<path class="st2" d="M188.9641,283.4035h-53.0867c-1.445,0-2.4873-0.3317-3.1506-0.9713    c-0.6396-0.6396-0.9712-1.7056-0.9712-3.1506v-74.1223c0-1.445,0.3316-2.4873,0.9712-3.1506    c0.6633-0.6396,1.7056-0.9712,3.1506-0.9712h53.0867c1.445,0,2.4873,0.3316,3.1506,0.9712    c0.6396,0.6633,0.9713,1.7056,0.9713,3.1506v13.3842c0,1.445-0.3316,2.4873-0.9713,3.1506    c-0.6633,0.6396-1.7056,0.9712-3.1506,0.9712h-31.5772v8.8122h22.3149c1.445,0,2.4873,0.308,3.1269,0.9712    c0.6633,0.6396,0.9712,1.6819,0.9712,3.1269v12.2471c0,1.445-0.308,2.511-0.9712,3.1506    c-0.6396,0.6396-1.6819,0.9713-3.1269,0.9713h-22.3149v9.8309h31.5772c1.445,0,2.4873,0.3316,3.1506,0.9713    c0.6396,0.6633,0.9713,1.7056,0.9713,3.1506v13.3842c0,1.445-0.3316,2.511-0.9713,3.1506    C191.4514,283.0718,190.4091,283.4035,188.9641,283.4035z"></path>
		<path class="st2" d="M227.8374,283.4035h-17.1507c-1.445,0-2.4873-0.3317-3.1506-0.9713    c-0.6396-0.6396-0.9713-1.7056-0.9713-3.1506v-74.1223c0-1.445,0.3316-2.4873,0.9713-3.1506    c0.6633-0.6396,1.7056-0.9712,3.1506-0.9712h11.8918c1.445,0,2.7005,0.2369,3.7191,0.687    c1.0423,0.4501,2.0372,1.2555,3.0322,2.3926l22.1964,25.4181v-24.3758c0-1.445,0.3316-2.4873,0.9713-3.1506    c0.6396-0.6396,1.7056-0.9712,3.1506-0.9712h17.1507c1.445,0,2.511,0.3316,3.1506,0.9712    c0.6396,0.6633,0.9712,1.7056,0.9712,3.1506v74.1223c0,1.445-0.3316,2.511-0.9712,3.1506    c-0.6396,0.6396-1.7056,0.9713-3.1506,0.9713h-17.1507c-1.445,0-2.511-0.3317-3.1506-0.9713    c-0.6396-0.6396-0.9713-1.7056-0.9713-3.1506v-14.0712l-19.567-23.6651v37.7363c0,1.445-0.308,2.511-0.9713,3.1506    C230.3484,283.0718,229.3061,283.4035,227.8374,283.4035z"></path>
		<path class="st2" d="M313.9699,283.4035h-17.1507c-1.445,0-2.4873-0.3317-3.1506-0.9713    c-0.6396-0.6396-0.9713-1.7056-0.9713-3.1506v-74.1223c0-1.445,0.3316-2.4873,0.9713-3.1506    c0.6633-0.6396,1.7056-0.9712,3.1506-0.9712h11.8918c1.445,0,2.7005,0.2369,3.7191,0.687    c1.0423,0.4501,2.0372,1.2555,3.0322,2.3926l22.1964,25.4181v-24.3758c0-1.445,0.3317-2.4873,0.9713-3.1506    c0.6396-0.6396,1.7056-0.9712,3.1506-0.9712h17.1507c1.445,0,2.511,0.3316,3.1506,0.9712    c0.6396,0.6633,0.9713,1.7056,0.9713,3.1506v74.1223c0,1.445-0.3317,2.511-0.9713,3.1506s-1.7056,0.9713-3.1506,0.9713h-17.1507    c-1.445,0-2.511-0.3317-3.1506-0.9713s-0.9713-1.7056-0.9713-3.1506v-14.0712l-19.567-23.6651v37.7363    c0,1.445-0.308,2.511-0.9712,3.1506C316.481,283.0718,315.4387,283.4035,313.9699,283.4035z"></path>
		<path class="st2" d="M436.0621,283.4035h-53.0867c-1.445,0-2.4873-0.3317-3.1506-0.9713    c-0.6396-0.6396-0.9712-1.7056-0.9712-3.1506v-74.1223c0-1.445,0.3316-2.4873,0.9712-3.1506    c0.6633-0.6396,1.7056-0.9712,3.1506-0.9712h53.0867c1.445,0,2.4873,0.3316,3.1506,0.9712    c0.6396,0.6633,0.9713,1.7056,0.9713,3.1506v13.3842c0,1.445-0.3317,2.4873-0.9713,3.1506    c-0.6633,0.6396-1.7056,0.9712-3.1506,0.9712h-31.5772v8.8122h22.3149c1.445,0,2.4873,0.308,3.1269,0.9712    c0.6633,0.6396,0.9712,1.6819,0.9712,3.1269v12.2471c0,1.445-0.308,2.511-0.9712,3.1506    c-0.6396,0.6396-1.6819,0.9713-3.1269,0.9713h-22.3149v9.8309h31.5772c1.445,0,2.4873,0.3316,3.1506,0.9713    c0.6396,0.6633,0.9713,1.7056,0.9713,3.1506v13.3842c0,1.445-0.3317,2.511-0.9713,3.1506    C438.5494,283.0718,437.5071,283.4035,436.0621,283.4035z"></path>
		<rect x="486.9391" y="161.4159" class="st0" width="710.9951" height="161.6092"></rect>
		<path class="st2" d="M591.7887,283.4035H555.758c-9.5229,0-16.6059-1.8951-21.2252-5.709    c-4.6193-3.8139-6.9172-9.6887-6.9172-17.6245v-35.6991c0-7.9358,2.2979-13.7869,6.9172-17.6008    c4.6193-3.8139,11.7023-5.7327,21.2252-5.7327h28.5924c1.445,0,2.511,0.3316,3.1506,0.9712    c0.6396,0.6633,0.9712,1.7056,0.9712,3.1506v13.8343c0,1.445-0.3316,2.511-0.9712,3.1506    c-0.6396,0.6396-1.7056,0.9712-3.1506,0.9712h-23.7836c-2.3689,0-4.1219,0.4738-5.2589,1.4213    c-1.1608,0.9713-1.7293,2.3926-1.7293,4.3114v27.3369c0,1.8951,0.4501,3.3164,1.3266,4.2166    c0.8765,0.9239,2.1793,1.374,3.9323,1.374h11.11v-17.8377c0-1.445,0.308-2.4873,0.9713-3.1506    c0.6396-0.6396,1.6819-0.9712,3.1506-0.9712h17.7192c1.445,0,2.511,0.3316,3.1506,0.9712    c0.6396,0.6633,0.9713,1.7056,0.9713,3.1506v35.3437c0,1.445-0.3316,2.511-0.9713,3.1506    C594.2997,283.0718,593.2337,283.4035,591.7887,283.4035z"></path>
		<path class="st2" d="M631.6096,283.4035h-17.6245c-1.445,0-2.4873-0.3317-3.1506-0.9713    c-0.6396-0.6396-0.9712-1.7056-0.9712-3.1506v-74.1223c0-1.445,0.3316-2.4873,0.9712-3.1506    c0.6633-0.6396,1.7056-0.9712,3.1506-0.9712h38.0916c8.5517,0,14.4265,1.7767,17.6719,5.33    c3.2454,3.5296,4.8562,8.1253,4.8562,13.7869v5.2589c0,3.198-0.4738,5.9222-1.4213,8.1726s-2.6058,3.8613-4.9747,4.8562    c4.1219,0.4738,7.462,2.132,10.0204,5.0457c2.5347,2.89,3.8139,6.7513,3.8139,11.5365v24.2574c0,1.445-0.308,2.511-0.9713,3.1506    c-0.6396,0.6396-1.6819,0.9713-3.1506,0.9713H660.202c-1.445,0-2.4873-0.3317-3.1506-0.9713    c-0.6396-0.6396-0.9713-1.7056-0.9713-3.1506v-17.506c0-1.6582-0.3317-2.9137-0.9713-3.7191    c-0.6396-0.7817-1.7767-1.1844-3.3638-1.1844h-16.0137v22.4096c0,1.445-0.3317,2.511-0.9713,3.1506    C634.0969,283.0718,633.0546,283.4035,631.6096,283.4035z M635.7314,221.623v14.6397h8.5754c1.9661,0,3.3164-0.4975,4.0034-1.5398    c0.687-1.0186,1.0187-2.2978,1.0187-3.8376v-3.885c0-1.5161-0.3317-2.7953-1.0187-3.8139    c-0.687-1.0423-2.0372-1.5635-4.0034-1.5635H635.7314z"></path>
		<path class="st2" d="M718.1922,279.2816c0,1.445-0.3079,2.511-0.9712,3.1506c-0.6396,0.6396-1.6819,0.9713-3.1506,0.9713H697.275    c-1.4688,0-2.511-0.3317-3.1506-0.9713c-0.6633-0.6396-0.9713-1.7056-0.9713-3.1506v-30.2032    c0-2.2741,0.3553-4.9036,1.0897-7.8884c0.7106-2.9611,1.8477-6.4434,3.3638-10.3994l9.9493-25.9866    c0.4738-1.2792,1.1607-2.2267,2.132-2.8427c0.9476-0.6159,2.1794-0.9239,3.7192-0.9239h30.7717    c1.4451,0,2.6295,0.308,3.6007,0.9239c0.9476,0.6159,1.6583,1.5635,2.1083,2.8427l9.9493,25.9866    c1.5161,3.956,2.6531,7.4383,3.3875,10.3994c0.7107,2.9848,1.066,5.6142,1.066,7.8884v30.2032c0,1.445-0.3079,2.511-0.9713,3.1506    c-0.6396,0.6396-1.6819,0.9713-3.1269,0.9713h-17.2928c-1.5161,0-2.6295-0.3317-3.3638-0.9713    c-0.7343-0.6396-1.0897-1.7056-1.0897-3.1506V263.268h-20.254V279.2816z M724.7303,225.0579l-5.3774,17.3876h17.9561    l-5.3773-17.3876c-0.308-0.687-0.6396-1.1844-0.9713-1.4924c-0.3553-0.2843-0.7581-0.4501-1.2081-0.4501h-2.8663    c-0.4501,0-0.8528,0.1658-1.1844,0.4501C725.3463,223.8735,725.0146,224.3709,724.7303,225.0579z"></path>
		<path class="st2" d="M799.6581,283.4035h-17.1507c-1.445,0-2.4874-0.3317-3.1506-0.9713    c-0.6396-0.6396-0.9713-1.7056-0.9713-3.1506v-74.1223c0-1.445,0.3317-2.4873,0.9713-3.1506    c0.6633-0.6396,1.7056-0.9712,3.1506-0.9712h11.8918c1.445,0,2.7005,0.2369,3.7191,0.687    c1.0423,0.4501,2.0372,1.2555,3.0322,2.3926l22.1965,25.4181v-24.3758c0-1.445,0.3316-2.4873,0.9712-3.1506    c0.6396-0.6396,1.7056-0.9712,3.1506-0.9712h17.1507c1.445,0,2.511,0.3316,3.1506,0.9712    c0.6396,0.6633,0.9713,1.7056,0.9713,3.1506v74.1223c0,1.445-0.3317,2.511-0.9713,3.1506s-1.7056,0.9713-3.1506,0.9713h-17.1507    c-1.445,0-2.511-0.3317-3.1506-0.9713c-0.6396-0.6396-0.9712-1.7056-0.9712-3.1506v-14.0712l-19.567-23.6651v37.7363    c0,1.445-0.3079,2.511-0.9712,3.1506C802.1691,283.0718,801.1268,283.4035,799.6581,283.4035z"></path>
		<path class="st2" d="M907.1816,283.4035h-38.5417c-1.445,0-2.4873-0.3317-3.1506-0.9713    c-0.6396-0.6396-0.9713-1.7056-0.9713-3.1506v-74.1223c0-1.445,0.3317-2.4873,0.9713-3.1506    c0.6633-0.6396,1.7056-0.9712,3.1506-0.9712h38.5417c9.5466,0,16.6058,1.9188,21.2252,5.7327    c4.6193,3.8139,6.9172,9.665,6.9172,17.6008V260.07c0,7.9358-2.2979,13.8106-6.9172,17.6245S916.7282,283.4035,907.1816,283.4035z     M890.481,222.8785v38.897h13.6211c1.824,0,3.1743-0.4501,4.0508-1.374c0.8765-0.9002,1.3265-2.3215,1.3265-4.2166v-27.8107    c0-1.8951-0.4501-3.2927-1.3265-4.1692c-0.8765-0.8765-2.2267-1.3266-4.0508-1.3266H890.481z"></path>
		<path class="st2" d="M1007.0537,283.4035H953.967c-1.445,0-2.4873-0.3317-3.1506-0.9713    c-0.6396-0.6396-0.9712-1.7056-0.9712-3.1506v-74.1223c0-1.445,0.3316-2.4873,0.9712-3.1506    c0.6633-0.6396,1.7056-0.9712,3.1506-0.9712h53.0867c1.445,0,2.4873,0.3316,3.1506,0.9712    c0.6396,0.6633,0.9713,1.7056,0.9713,3.1506v13.3842c0,1.445-0.3317,2.4873-0.9713,3.1506    c-0.6633,0.6396-1.7056,0.9712-3.1506,0.9712h-31.5772v8.8122h22.3149c1.445,0,2.4873,0.308,3.1269,0.9712    c0.6633,0.6396,0.9713,1.6819,0.9713,3.1269v12.2471c0,1.445-0.3079,2.511-0.9713,3.1506    c-0.6396,0.6396-1.6819,0.9713-3.1269,0.9713h-22.3149v9.8309h31.5772c1.445,0,2.4873,0.3316,3.1506,0.9713    c0.6396,0.6633,0.9713,1.7056,0.9713,3.1506v13.3842c0,1.445-0.3317,2.511-0.9713,3.1506    C1009.541,283.0718,1008.4987,283.4035,1007.0537,283.4035z"></path>
		<path class="st2" d="M1062.8645,283.4035h-36.149c-1.4451,0-2.4874-0.3317-3.1506-0.9713    c-0.6396-0.6396-0.9713-1.7056-0.9713-3.1506v-13.3842c0-1.445,0.3316-2.4873,0.9713-3.1506    c0.6632-0.6396,1.7056-0.9713,3.1506-0.9713h30.7717c0.995,0,1.7292-0.308,2.2268-0.9713    c0.4974-0.6396,0.7579-1.4213,0.7579-2.3452c0-1.2792-0.2605-2.2504-0.7579-2.8427c-0.4976-0.6159-1.2318-0.9713-2.2268-1.0423    l-17.1508-2.3926c-5.3536-0.758-9.6412-2.5347-12.8629-5.2589c-3.2455-2.7479-4.8799-7.3435-4.8799-13.7395v-12.0102    c0-6.4907,2.1083-11.4654,6.3012-14.924c4.1929-3.4823,9.9967-5.2115,17.3876-5.2115h32.0037c1.4686,0,2.511,0.3316,3.1743,0.9712    c0.6158,0.6633,0.9475,1.7056,0.9475,3.1506v13.6211c0,1.445-0.3317,2.4873-0.9475,3.1269    c-0.6633,0.6633-1.7057,0.9712-3.1743,0.9712h-26.6262c-0.995,0-1.7531,0.3316-2.2979,0.9713    c-0.5211,0.6633-0.8054,1.4924-0.8054,2.4636c0,0.9949,0.2843,1.8477,0.8054,2.5347c0.5448,0.687,1.3029,1.066,2.2979,1.1371    l17.0085,2.2741c5.3536,0.7817,9.665,2.5347,12.9341,5.2826c3.269,2.7242,4.9272,7.3198,4.9272,13.7158v12.0102    c0,6.4907-2.132,11.4654-6.3486,14.924C1075.9645,281.6742,1070.1844,283.4035,1062.8645,283.4035z"></path>
		<path class="st2" d="M1136.75,283.4035h-18.5247c-1.4214,0-2.511-0.3317-3.127-0.9713c-0.6633-0.6396-0.9949-1.7056-0.9949-3.1506    v-56.1662h-16.8191c-1.4214,0-2.4636-0.3316-3.127-0.9712c-0.6633-0.6396-0.9949-1.7056-0.9949-3.1506v-13.8343    c0-1.445,0.3315-2.4873,0.9949-3.1506c0.6633-0.6396,1.7056-0.9712,3.127-0.9712h60.4065c1.4686,0,2.511,0.3316,3.1743,0.9712    c0.6158,0.6633,0.9475,1.7056,0.9475,3.1506v13.8343c0,1.445-0.3317,2.511-0.9475,3.1506    c-0.6633,0.6396-1.7057,0.9712-3.1743,0.9712h-16.8191v56.1662c0,1.445-0.3317,2.511-0.9475,3.1506    C1139.261,283.0718,1138.2186,283.4035,1136.75,283.4035z"></path>
	</g>
	<g>
		<path class="st0" d="M1188.8525,89.9776c-0.0319-0.1715-0.0828-0.3338-0.1256-0.5011c-0.0753-0.294-0.1606-0.5827-0.2693-0.8662    c-0.0667-0.1724-0.1396-0.3384-0.2179-0.5047c-0.1287-0.2764-0.2748-0.5417-0.4354-0.8015    c-0.0857-0.1376-0.1678-0.2751-0.2615-0.4069c-0.0553-0.078-0.0964-0.1649-0.1545-0.2409l-33.3076-43.529    c-1.4691-1.9215-3.7877-3.0678-6.2083-3.0678h-33.3656V9.1781c0-4.31-3.5056-7.8156-7.8171-7.8156H915.6274    c-4.3114,0-7.817,3.5056-7.817,7.8156v20.7998H841.291c-2.6714,0-4.8371,2.1657-4.8371,4.8369    c0,2.6714,2.1657,4.8371,4.8371,4.8371h66.5194V67.223h-46.0621c-2.6714,0-4.8369,2.1657-4.8369,4.8369    c0,2.6714,2.1655,4.8371,4.8369,4.8371h46.0621v28.0548h-22.3217c-2.6714,0-4.8369,2.1659-4.8369,4.8371    c0,2.6712,2.1655,4.8369,4.8369,4.8369h22.3217v20.3159c0,4.31,3.5056,7.8156,7.817,7.8156h11.2009    c3.5848,17.3661,18.9946,30.4638,37.4062,30.4638c18.4117,0,33.8214-13.0976,37.4062-30.4638h67.7533    c3.5848,17.3661,18.9946,30.4638,37.4062,30.4638c18.4142,0,33.8242-13.0976,37.4092-30.4638h36.9706    c4.3114,0,7.817-3.5056,7.817-7.8156V91.4069C1188.9971,90.9255,1188.9407,90.4485,1188.8525,89.9776z M1138.691,55.6906h5.3209    l21.348,27.9004l-26.6689,0.0018V55.6906z M964.2345,157.59c-12.2676,0-22.2582-9.8446-22.5374-22.0451    c0.0158-0.2025,0.0609-0.3966,0.0609-0.6031c0-5.4097,1.9095-10.3782,5.0827-14.2724c4.1418-5.0093,10.401-8.2071,17.3938-8.2071    c12.4427,0,22.5638,10.1226,22.5638,22.5638C986.7983,147.4674,976.6772,157.59,964.2345,157.59z M1069.3005,127.1262h-67.6536    c-3.6481-17.5105-19.2706-30.4114-37.36-30.4114c-9.144,0-17.6512,3.3056-24.3071,8.8293    c-0.0735,0.0605-0.1402,0.1286-0.2133,0.1896c-0.7751,0.6529-1.5266,1.3319-2.2482,2.0437    c-0.3666,0.3593-0.7092,0.7404-1.061,1.114c-0.4006,0.4278-0.8013,0.8542-1.1824,1.3004    c-0.4362,0.5078-0.8493,1.0331-1.2587,1.5635c-0.2518,0.328-0.5015,0.6564-0.743,0.993c-0.4604,0.638-0.8995,1.2891-1.3207,1.9557    c-0.1382,0.22-0.2711,0.4429-0.405,0.666c-0.4773,0.7906-0.9315,1.5935-1.3517,2.4199c-0.0156,0.0307-0.0296,0.0626-0.0451,0.0935    c-1.4624,2.8952-2.5908,5.9853-3.279,9.2427h-3.4271V16.9952h175.4311V47.875v49.6762    C1084.0823,100.6422,1072.3901,112.3329,1069.3005,127.1262z M1106.8003,157.59c-12.4427,0-22.5638-10.1226-22.5638-22.5638    c0-12.4412,10.1211-22.5638,22.5638-22.5638c0.748,0,1.4866,0.0409,2.2163,0.1124c11.313,1.1681,20.1671,10.7523,20.1671,22.3671    c0,0.4231,0.0598,0.8306,0.1249,1.2357C1128.7034,148.0823,1118.8544,157.59,1106.8003,157.59z M1173.3658,127.1262h-29.1997    c-2.7181-12.8672-11.9441-23.3288-24.0504-27.8529c-0.1705-0.0645-0.3422-0.1264-0.5138-0.1884    c-0.735-0.2627-1.473-0.5147-2.2279-0.7328c-0.3986-0.1166-0.8068-0.2084-1.2106-0.3122    c-0.5533-0.1402-1.0941-0.3113-1.6566-0.4269V55.6906h8.553v35.7178c0,2.0903,0.8146,4.0525,2.2896,5.526    c1.475,1.4764,3.4387,2.2896,5.5276,2.2896l42.4889-0.0013V127.1262z"></path>
	</g>
</g>
</svg>
