<?xml version="1.0" encoding="UTF-8"?>
<!-- Generator: Adobe Illustrator 23.0.3, SVG Export Plug-In . SVG Version: 6.00 Build 0)  -->
<svg xmlns="http://www.w3.org/2000/svg" xmlns:xlink="http://www.w3.org/1999/xlink" version="1.1" x="0px" y="0px" width="500px" height="500px" viewBox="0 0 500 500" style="enable-background:new 0 0 500 500;" xml:space="preserve">
<style type="text/css">
	.st0{fill:#108F6E;}
	.st1{fill:#FCE300;}
	.st2{fill:#EDEDED;}
	.st3{fill:#FFD200;}
	.st4{fill:#FFFFFF;}
	.st5{fill:#BCE13E;}
	.st6{fill:#91B31E;}
	.st7{fill:#0E1A34;}
	.st8{fill:#FF9A5C;}
	.st9{fill:#753519;}
	.st10{fill:#1A6652;}
	.st11{fill:#19614F;}
	.st12{opacity:0.79;fill:#9AE5E5;}
</style>
<g id="BACKGROUND">
</g>
<g id="OBJECTS">
	<g>
		<g>
			<g>
				<path class="st0" d="M392.4,264l-0.1-1.9c0,0,0.9-0.1,2.3-0.1c1.5,0,3.5,0.1,6,0.2c5,0.4,11.5,1.4,17.9,3.2      c6.4,1.8,12.5,4.5,16.9,6.8c2.2,1.2,4,2.2,5.2,3c1.2,0.8,1.9,1.3,1.9,1.3l-1.1,1.6c0,0-0.7-0.4-1.9-1.2c-1.2-0.8-2.9-1.8-5.1-3      c-4.3-2.3-10.2-5-16.5-6.7c-6.2-1.8-12.7-2.8-17.5-3.1c-2.4-0.2-4.5-0.2-5.9-0.2C393.2,264,392.4,264,392.4,264z"></path>
			</g>
			<path class="st1" d="M444.5,287c-1.5-1.1-2.4-2.7-2.7-4.4c-0.3-1.7-0.2-3.3,0.8-4.7c0.9-1.4,2.6-2.3,4.3-2.3c1.8,0,3.8,0.7,5.5,2     c1.7,1.4,2.6,3.4,2.9,5.1c0.3,1.8-0.2,3.4-1.5,4.6c-1.2,1.2-2.9,1.7-4.6,1.7C447.5,288.9,445.9,288.2,444.5,287z"></path>
			<path class="st0" d="M445.2,283c0,0,0.8,0.4,1.9,0.7c1.1,0.3,2.4,0.8,3.7,0.6c0-1.3-0.5-2.7-1.1-3.7c-0.6-1-1.2-1.7-1.2-1.7     c1.9-0.5,3.4-1.4,4.4-2.2c1-0.8,1.5-1.5,1.5-1.5c-2.2-1.2-4.2-1.7-5.9-1.8c-1.7-0.1-3.2,0.3-4.3,0.7c-2.3,0.9-3.5,2.3-3.5,2.3     s-0.7,1.6-0.8,4c-0.1,1.2,0.1,2.5,0.5,4c0.4,1.5,1.1,3.1,2.3,4.6c0,0,0.6-0.6,1.2-1.7C444.4,286.4,445.1,284.9,445.2,283z"></path>
		</g>
		<ellipse class="st2" cx="252.9" cy="428.9" rx="200.1" ry="16.8"></ellipse>
		<g>
			<g>
				<path class="st0" d="M116.8,259.7l-0.7,2c0,0-0.8-0.3-2.3-0.7c-1.5-0.5-3.6-1.1-6.1-1.7c-5.1-1.3-12-2.7-18.9-3.6      c-7-0.9-14-1.1-19.2-1c-2.6,0.1-4.8,0.1-6.3,0.3c-1.5,0.2-2.4,0.2-2.4,0.2l-0.2-2.1c0,0,0.9-0.1,2.4-0.2      c1.5-0.2,3.8-0.2,6.4-0.3c5.3-0.1,12.5,0.1,19.5,1c7.1,0.9,14,2.3,19.2,3.6c2.6,0.7,4.7,1.3,6.2,1.7      C116,259.4,116.8,259.7,116.8,259.7z"></path>
			</g>
			<path class="st1" d="M50.9,248.9c2.3-0.4,4.5,0,6.1,1c1.6,1,2.7,2.6,2.9,4.4c0.2,1.8-0.5,3.5-1.7,4.9c-1.2,1.4-2.9,2.4-4.9,2.8     c-1,0.1-2,0.2-2.9,0.1c-0.9-0.1-1.8-0.4-2.6-0.8c-1.6-0.9-2.9-2.2-3.4-4c-0.5-1.8-0.1-3.6,1.1-5.1c0.6-0.8,1.4-1.4,2.3-2     C48.7,249.5,49.8,249,50.9,248.9z"></path>
			<path class="st0" d="M53.9,252.3c0,0-0.9,0.3-2,1c-1.1,0.6-2.4,1.6-3,2.8c1.1,0.8,2.6,1.1,3.8,1.4c1.2,0.2,2.2,0.3,2.2,0.3     c-0.9,1.8-1.1,3.6-1.1,5c0,1.3,0.2,2.2,0.2,2.2c2-0.9,3.5-2,4.7-3.2c1.2-1.1,2-2.4,2.6-3.5c1.2-2.3,1.3-4.2,1.3-4.2     s-0.4-1.9-2.1-3.9c-0.9-1-2-2.1-3.7-2.9c-1.6-0.8-3.7-1.3-6.4-1.4c0,0,0.1,0.9,0.6,2.2C51.5,249.2,52.4,250.8,53.9,252.3z"></path>
		</g>
		<path class="st3" d="M252.1,131.9c0,0-16.2-8-19-25.7c-2.8-17.6,25.3-24.3,37,4.9c0,0-2.1-31.6,17.1-35.1    c19.2-3.4,16.1,35,10.3,41.1c0,0,8.1-5.9,16-1c7.9,4.9,5.4,23.9-20.2,29C267.7,150.3,252.1,131.9,252.1,131.9z"></path>
		<path class="st4" d="M269.8,136.8c-4.5-9.9-12.7-20.6-12.7-20.7l0.4-0.3c0.1,0.1,8.3,10.8,12.8,20.8L269.8,136.8z"></path>
		
			<rect x="267" y="115.4" transform="matrix(0.1701 -0.9854 0.9854 0.1701 123.943 378.6254)" class="st4" width="39.5" height="0.6"></rect>
		<path class="st5" d="M159.6,166.7c0,0-6.7-14.6-20.5-14.6c-13.8,0-15.8,14.5-7.7,25.3c0,0-13.2-9.2-32.2-8.4s-33.1,14.8-28.9,30.5    c4.1,15.7,25.3,19.3,31.4,17.6c0,0-20.9,14.9-12.7,28.4c8.3,13.5,34.2,0,34.2,0L159.6,166.7z"></path>
		<path class="st4" d="M131.8,204.9c-0.2-0.1-23.7-9.8-35.7-11l0.1-1.1c12.1,1.2,35.7,10.9,36,11L131.8,204.9z"></path>
		<path class="st4" d="M96.5,204.8l-0.7-0.9c4.7-3.4,14-6.9,14.4-7l0.4,1.1C110.5,198,101.1,201.5,96.5,204.8z"></path>
		<path class="st4" d="M121,200.5c-0.1-0.4-3.2-8.9-3.5-12.4l1.1-0.1c0.3,3.3,3.4,12,3.4,12.1L121,200.5z"></path>
		<path class="st4" d="M101,239.1l-0.6-1c11.7-6.8,20.9-8.2,21-8.2l0.2,1.1C121.5,231.1,112.5,232.5,101,239.1z"></path>
		<path class="st4" d="M151.2,182.1c-0.4-0.4-9.1-9.9-11.5-17.6l1.1-0.3c2.3,7.5,11.1,17.1,11.2,17.2L151.2,182.1z"></path>
		<g>
			<path class="st3" d="M92.7,270.7l-0.9-6.8c-3.6-0.5-7.4-0.8-11.6-0.8c-11.3,0-22.5,2-31.7,5.8l-0.4,4.9l-2.3-3.7     c-1.5,0.7-3,1.5-4.5,2.3l1.5,9l-5.4-6.5c-4.2,3-7.5,6.5-9.5,10.4c-2,3.9-2.6,8.1-1.7,12.6c0.8,3.9,2.6,7.1,5,9.8     c1.2,1.4,2.6,2.6,4.2,3.6c1.6,1.1,3.3,2,5.2,2.8c7.4,3.3,17.2,4.5,27.6,3.7l2.5-7.9l3.5,7.2c2.4-0.3,4.8-0.8,7.2-1.3l-0.7-4.7     l3.9,3.9c0.9-0.2,1.9-0.5,2.8-0.8c16.6-4.8,27-12.7,33.4-19.4c6.3-6.7,8.5-12.3,8.5-12.3s-9.5-13.5-32.9-18.1L92.7,270.7z"></path>
		</g>
		
			<rect x="43.8" y="289.6" transform="matrix(0.9826 -0.1856 0.1856 0.9826 -52.3989 20.4395)" class="st4" width="78.5" height="1.1"></rect>
		<path class="st4" d="M70.4,293.1c-5.5-0.3-16.4-5.1-16.8-5.3l0.5-1c0.1,0,11.2,4.9,16.5,5.2L70.4,293.1z"></path>
		<path class="st4" d="M74.8,301.7l-1.1-0.3c1.2-4.7,7.3-11,7.5-11.2L82,291C81.9,291,75.9,297.3,74.8,301.7z"></path>
		<path class="st4" d="M100.6,287.3c-6.3-1.4-12.9-8.1-13.2-8.4l0.8-0.8c0.1,0.1,6.6,6.7,12.6,8.1L100.6,287.3z"></path>
		<g>
			<path class="st3" d="M402,337.1l-1.5,6.6c3.1,1.7,6.5,3.3,10.4,4.7c10.4,3.9,21.3,5.8,31,5.5l2-4.3l0.9,4.1     c1.7-0.1,3.3-0.3,4.9-0.6l1.7-8.7l2.7,7.7c4.9-1.4,9-3.4,12.2-6.3c3.1-2.9,5.1-6.5,5.8-10.9c0.6-3.8,0.1-7.4-1.3-10.7     c-0.7-1.7-1.5-3.2-2.6-4.7c-1.1-1.5-2.3-3-3.8-4.4c-5.7-5.5-14.2-9.9-24-12.7l-4.9,6.4l-0.7-7.8c-2.3-0.5-4.6-0.9-7-1.2l-1,4.5     l-2.3-4.9c-0.9-0.1-1.9-0.2-2.8-0.3c-16.8-1.2-29,2.4-37.1,6.4c-8.1,4-11.9,8.3-11.9,8.3s4.2,15.5,24,27.8L402,337.1z"></path>
		</g>
		
			<rect x="416.8" y="284.4" transform="matrix(0.1676 -0.9858 0.9858 0.1676 29.3182 680.0704)" class="st4" width="1.1" height="76.6"></rect>
		<path class="st4" d="M442.8,335.6c-0.1-0.1-8.6-8.2-13.3-10.3l0.4-1c4.9,2.2,13.3,10.2,13.6,10.5L442.8,335.6z"></path>
		<path class="st4" d="M419.1,323.2l-0.5-1c0.1,0,7.7-3.7,10.2-7.4l0.9,0.6C427.1,319.4,419.4,323.1,419.1,323.2z"></path>
		<path class="st4" d="M408.5,331.9c0-0.1-3.8-8.4-8.8-11.7l0.6-0.9c5.3,3.5,9.1,11.8,9.2,12.2L408.5,331.9z"></path>
		<g>
			
				<rect x="320.7" y="406.4" transform="matrix(0.3592 -0.9332 0.9332 0.3592 -161.6479 579.7386)" class="st5" width="41.3" height="2.4"></rect>
		</g>
		<g>
			
				<rect x="355" y="387" transform="matrix(0.9332 -0.3592 0.3592 0.9332 -122.6462 155.1665)" class="st5" width="2.4" height="41.3"></rect>
		</g>
		<g>
			<rect x="342.6" y="403.2" class="st5" width="12.8" height="2.4"></rect>
		</g>
		<g>
			<rect x="339.7" y="411.7" class="st5" width="18.6" height="2.4"></rect>
		</g>
		<path class="st6" d="M89.9,426.9c0,0,0.4,1.4,1.3,2.7c1,1.3,2.5,3,2.6,3.7c0.2,0.7-0.7,1.4-1.5,1.1c-0.8-0.3-6.8-3-8.2-4.1    c-1.4-1.1-1.8-1.5-1.8-1.7s1.8-3.3,2.2-4C85.1,423.9,88.8,423.9,89.9,426.9z"></path>
		<path class="st6" d="M105.5,418.9c0,0,1,1.1,2.5,1.8c1.5,0.7,3.6,1.5,4.1,2c0.5,0.5,0.1,1.5-0.8,1.7c-0.9,0.1-7.4,0.6-9.2,0.4    c-1.8-0.3-2.3-0.4-2.4-0.7c-0.1-0.2,0-3.7,0.1-4.6C99.8,418.5,103.1,416.7,105.5,418.9z"></path>
		<path class="st7" d="M105.8,366.2c0,0,2.9,19.4,3,24.4c0.1,5.1-3,28.5-3,28.5h-6.1c0,0,0.6-11.4,0.6-13.2c0-1.8-0.6-17.4-0.6-17.4    l0.6-21.7C100.2,366.9,103.8,364.7,105.8,366.2z"></path>
		<path class="st7" d="M91.6,366.9c0,0-1.9,5-1.3,15.2c0.6,10.2,1.1,12.6,1.1,12.6s-6.9,26.6-7.7,29.8c0,0,3.2,2.3,6.7,2.5    c0,0,7.3-17.9,9.8-24.3c2.6-6.4,3.3-10.8,3.4-16.4c0-5.6,0.6-20.6,0.6-20.6L91.6,366.9z"></path>
		<path class="st4" d="M101,401.4l-0.5-0.2c1.9-6.3,2.9-13.3,2.9-21.7l0.6,0C103.9,388,102.9,395.1,101,401.4z"></path>
		<path class="st8" d="M110.5,363.5c0,0-12.6-2.2-17.2-4.7c-4.6-2.5-4-4.8-3.4-6.4c0.6-1.6,2.6-5.1,2.6-5.1l4.5,3.2l-0.1,1l-0.8,1.7    c0,0,1.5,0.9,3.7,2.1c2.2,1.2,11.1,5.3,11.1,5.3S113.2,362.5,110.5,363.5z"></path>
		<path class="st8" d="M110.2,363.3c1,1.1,2.4,1.7,2.4,1.7c0.1,0.9,0.6,1.2,0.9,1.2c0.3,0,0.3-1.3,0.3-1.3c0.2,0.6,1.2,1.2,1.3,0.8    c0.1-0.4,0-0.9,0-0.9s0.4,0.5,0.7,0.5c0.3,0,0.7-0.3,0.5-0.9c-0.1-0.7-0.5-1.6-0.9-2.2c-0.4-0.5-0.6-1-1.5-1.2    c-0.9-0.2-1.1-0.1-2.1-0.2c-1-0.1-2.5,0-2.5,0L110.2,363.3z"></path>
		<path class="st9" d="M100.9,323.4c0,0-1.7-3.6-6.4-2.3c-4.7,1.4-3.3,5.8-6.3,7.7c-3.1,1.9-7.6,2.9-8.8,8.1c-1.2,5.2,2.5,5.6,0,8.8    c-2.5,3.2-3.4,5.4-0.7,8.7c2.7,3.3,7.4,2.3,10.3,0.7c2.9-1.6,15.8-7.6,15.8-7.6s3-3.1,0-6.5c-3-3.4-2.2-8.5-2.2-8.5    s1.1-0.2,1.5-3.2C104.5,326.4,103.5,322.5,100.9,323.4z"></path>
		<path class="st8" d="M333.3,75.7l1.7-1.2c0,0,5.7,6.9,14.9,11.6c9.3,4.7,12.5,6.5,13.3,6.6c0.8,0.2,4.8,0.8,6.2,2.6    c1.4,1.8,1.5,2.8,1.2,2.8c-0.3,0.1-1.8-2.1-1.8-2.1s1.5,2,1.4,2.7s-1-0.5-1.3-0.8c-0.3-0.3-1.1-1.2-1.1-1.2s1.6,2.1,1.7,2.8    c0.1,0.6-1-0.2-1.8-1.1c-0.8-0.9-1.8-1.4-2-1.1c-0.2,0.3-0.3,1.4-0.6,1.2c-0.3-0.2-0.4-1.1-0.6-1.7c-0.5,0-3-0.9-7.5-1.8    c-4.5-0.9-22.5-8.8-26.6-13.9C326.2,76,333.3,75.7,333.3,75.7z"></path>
		<g>
			<path class="st5" d="M447.3,260.3L447.3,260.3L447.3,260.3c1.6-1.9,2.5-3.9,2.8-6.1c0.2-2.1-0.3-4.2-1.4-6.3c0,0,0.5,0.6,1.3,1.4     c0.8,0.8,1.9,1.9,2.9,3.1c1.9,2.4,3.8,4.8,3.8,4.8c-1.7,1.9-2.6,3.9-3.1,6.1c-0.5,2.2-0.3,4.4,0.5,6.5l0,0c1.8-1.6,3-3.5,3.5-5.6     c0.3-1,0.4-2.1,0.3-3.2c-0.1-1.1-0.3-2.3-0.8-3.3c0,0,0.3,0.3,0.7,0.8c0.4,0.5,0.8,1.2,1.3,2c0.9,1.4,1.9,2.9,1.9,2.9     c0,1.2,0.2,2.4,0.5,3.5c0.3,1.1,0.6,2.2,1.2,3.1c1.1,1.9,2.7,3.5,5,4.7h0l0,0c0.2-2.4-0.2-4.8-1.3-6.8c-0.5-1-1.2-1.9-2-2.7     c-0.9-0.8-1.9-1.4-3.1-1.9c0,0-0.5-0.7-1.2-1.8c-0.4-0.5-0.8-1.2-1.2-1.8c-0.2-0.3-0.5-0.7-0.7-1c-0.3-0.3-0.5-0.7-0.8-1     c-2.1-2.7-4.3-5.4-4.3-5.4c3.7,2.9,8.5,3.4,13,1.5l0,0h0c-2-1.9-4.3-3-6.6-3.3c-2.3-0.3-4.6,0.1-6.8,1.3c0,0-2.1-2.2-4.2-4.5     c-1-1.2-2.2-2.1-3.1-2.9c-0.9-0.8-1.4-1.3-1.4-1.3c1.1,0.6,2.1,1,3.3,1.2c1.1,0.2,2.2,0.4,3.3,0.4c2.2,0,4.4-0.6,6.5-1.8h0     c-1.1-0.8-2.3-1.5-3.4-1.9c-1.1-0.5-2.4-0.6-3.5-0.6c-2.3,0-4.6,0.8-6.6,2.3c0,0-0.6-0.5-1.4-1.3c-0.9-0.7-2.1-1.7-3.4-2.6     c-1.2-0.9-2.4-1.9-3.4-2.5c-1-0.6-1.6-1.1-1.6-1.1c1.1,0.4,2.3,0.6,3.4,0.7c1.1,0.1,2.2,0.1,3.3,0c2.2-0.3,4.3-1.2,6.2-2.8l0,0     l0,0c-2.5-1.3-4.9-1.8-7.3-1.5c-2.3,0.4-4.4,1.4-6.2,3.2c0,0-0.6-0.4-1.6-1.1c-1-0.6-2.3-1.3-3.7-2.1c-0.7-0.4-1.3-0.8-2-1.1     c-0.7-0.3-1.3-0.6-1.8-0.9c-1-0.5-1.7-0.8-1.7-0.8c2.3,0.5,4.6,0.3,6.7-0.3c2.1-0.6,4.1-1.8,5.8-3.6l0,0     c-1.3-0.5-2.6-0.7-3.9-0.8c-0.6,0-1.2,0-1.8,0c-0.6,0.1-1.2,0.2-1.7,0.4c-2.3,0.7-4.2,2.1-5.7,4.1c0,0-0.3-0.1-0.8-0.4     c-0.5-0.2-1.3-0.5-2.2-0.9c-1.8-0.8-4.3-1.6-6.8-2.5c-2.5-0.7-5.1-1.4-7-1.8c-1.9-0.4-3.2-0.5-3.2-0.5l0,0.3c0,0,0.9,0.1,2.3,0.3     c1.4,0.2,3.2,0.6,5,1.1c1.8,0.5,3.6,1,4.9,1.5c1.3,0.4,2.2,0.7,2.2,0.7c-0.3,2.5-0.1,4.8,0.7,6.9c0.8,2,2,3.8,3.8,5.2h0l0,0     c0.7-2.3,0.7-4.6,0.1-6.6c-0.6-2.1-2-3.8-3.9-5.2c0,0,0.7,0.3,1.8,0.7c1.1,0.4,2.5,1,3.9,1.7c1.4,0.7,2.8,1.3,3.8,1.8     c1,0.6,1.7,0.9,1.7,0.9c-0.7,2.4-0.8,4.7-0.3,6.8c0.5,2.1,1.4,4.1,3,5.7l0,0c1-2.2,1.4-4.4,1-6.5c-0.2-1.1-0.5-2.1-1-3.1     c-0.5-1-1.2-1.8-2.1-2.7c0,0,0.7,0.4,1.7,0.9c1,0.5,2.3,1.4,3.6,2.3c2.6,1.6,5,3.6,5,3.6c-1.1,2.3-1.5,4.6-1.3,6.7     c0.2,2.1,0.8,4.3,2.1,6.1v0c1.3-2,2-4.2,1.9-6.3c0-1.1-0.2-2.2-0.6-3.2c-0.4-1-1-2-1.7-2.9c0,0,0.6,0.5,1.5,1.2     c0.9,0.7,2.1,1.7,3.2,2.7c1.1,1,2.3,2.1,3.1,2.8c0.4,0.4,0.7,0.8,1,1c0.2,0.2,0.4,0.4,0.4,0.4c-1.4,2.1-2.1,4.4-2.3,6.5     c-0.1,1.1,0,2.1,0.3,3.2C446.5,258.2,446.8,259.3,447.3,260.3z"></path>
		</g>
		<g>
			<path class="st6" d="M96.1,119.8L96.1,119.8L96.1,119.8c-2.1,2-3.4,4.3-4,6.9c-0.6,2.5-0.3,5.2,0.7,7.8c0,0-0.5-0.7-1.3-1.9     c-0.8-1.1-1.9-2.6-2.9-4.1c-1-1.5-2-3-2.8-4.2c-0.4-0.6-0.7-1.1-0.9-1.4c-0.2-0.3-0.3-0.5-0.3-0.5c2.1-2.1,3.6-4.5,4.2-7.1     c0.3-1.3,0.5-2.6,0.4-3.9c0-1.3-0.2-2.7-0.6-4v0l0,0c-2.2,1.8-3.8,4-4.6,6.5c-0.7,2.4-0.7,5.1,0.2,7.8c0,0-1.1-1.7-2.1-3.5     c-0.5-0.9-1.1-1.7-1.4-2.4c-0.4-0.7-0.6-1.1-0.6-1.1c0.2-3-0.4-5.6-1.6-7.9c-1.1-2.3-3-4.3-5.6-5.9l0,0l0,0     c-0.5,2.9-0.1,5.7,1.1,8.2c1.2,2.4,3.2,4.4,5.8,5.9c0,0,0.1,0.2,0.3,0.6c0.2,0.4,0.5,1,0.9,1.6c0.8,1.3,1.9,3,2.9,4.8     c1,1.8,2.2,3.4,3.1,4.7c0.9,1.3,1.4,2.1,1.4,2.1c-2.1-1.9-4.6-3.1-7.1-3.6c-2.5-0.5-5.2-0.4-8,0.6l0,0v0c1.1,1.2,2.2,2.2,3.4,2.9     c1.2,0.8,2.5,1.2,3.9,1.5c2.7,0.6,5.5,0.3,8.2-0.8c0,0,0.5,0.8,1.3,1.9c0.8,1.1,1.9,2.6,3,4.1c2.1,3,4.4,5.9,4.4,5.9     c-1.1-0.9-2.3-1.6-3.6-2.1c-1.2-0.5-2.5-0.9-3.7-1.1c-2.6-0.3-5.3,0-8,1.2h0h0c2.3,2.1,4.9,3.5,7.5,3.9c2.7,0.4,5.5,0,8.2-1.3     c0,0,0.6,0.7,1.4,1.8c0.8,1.1,2,2.5,3.2,3.9c1.2,1.4,2.3,2.8,3.2,3.9c0.9,1,1.5,1.7,1.5,1.7c-4.7-3.3-10.1-3.7-15.3-1.1v0v0     c2.4,2,5.1,3.1,7.7,3.4c2.7,0.3,5.5-0.3,8.1-1.8c0,0,0.6,0.7,1.5,1.7c0.9,1,2.1,2.4,3.3,3.8c1.2,1.4,2.5,2.7,3.4,3.7     c0.9,1,1.6,1.7,1.6,1.7c-4.8-3.1-10.2-3.3-15.3-0.4l0,0l0,0c5,3.8,10.7,4.1,15.9,0.9c0,0,1.1,1.1,2.7,2.8c1.6,1.7,3.8,3.9,6,6.1     c2.2,2.2,4.5,4.4,6.2,6c1.7,1.6,2.9,2.6,2.9,2.6l0.3-0.3c0,0-3.3-3-6.4-6c-1.6-1.5-3.1-3.1-4.3-4.3c-1.2-1.2-1.9-2-1.9-2     c1.7-2.5,2.5-5.2,2.6-7.8c0.1-2.7-0.6-5.3-2.1-7.8l0,0l0,0c-3.4,4.7-3.8,10.1-1,15.1c0,0-2.6-2.6-5.1-5.3     c-1.3-1.3-2.5-2.7-3.4-3.7c-0.9-1-1.5-1.7-1.5-1.7c3.5-4.9,3.9-10.5,1.1-15.6v0l0,0c-3.6,4.5-4.2,9.9-1.6,15c0,0-0.6-0.7-1.5-1.7     c-0.9-1-2.1-2.4-3.3-3.8c-1.2-1.4-2.4-2.8-3.3-3.9c-0.9-1.1-1.5-1.8-1.5-1.8c1.9-2.4,2.9-4.9,3.2-7.5c0.3-2.6-0.1-5.3-1.4-7.9     l0,0l0,0c-1.9,2.2-3.1,4.6-3.5,7.1c-0.4,2.5-0.1,5.2,1.2,7.8c0,0-0.6-0.7-1.5-1.8c-0.8-1.1-2-2.5-3.1-4c-2.3-2.9-4.4-5.9-4.4-5.9     c2-2.2,3.2-4.8,3.7-7.3C97.3,125.2,97.1,122.5,96.1,119.8z"></path>
		</g>
		<path class="st8" d="M283.1,85c-0.9-0.5-1.4-1.1-1.4-1.1s-0.3-0.7-0.9-1.2c-0.6-0.5-1.4-0.6-1.4-0.6s0.5,1.8,1.1,2.3    c0.3,0.2,0.6,0.1,0.8-0.1c0.4,1,1.1,1.8,1.1,1.8S284.1,85.5,283.1,85z"></path>
		<circle class="st10" cx="253.4" cy="274.6" r="142.9"></circle>
		<path class="st11" d="M282.1,374.7c-70.6,0-127.8-57.2-127.8-127.8c0-47.6,26-89,64.5-111c-62.3,15.4-108.5,71.7-108.5,138.7    c0,78.9,64,142.9,142.9,142.9c65.2,0,120.2-43.7,137.4-103.3C368.2,350.5,328,374.7,282.1,374.7z"></path>
		<path class="st8" d="M301.8,85.3c0,0-3.4,3.1-4.6,3.1c-1.1,0-12.5-3.4-14.7-3.9c-2.1-0.5-2,0.2-2.9,0.8c-0.8,0.6,1.8,2.3,1.8,2.3    s10.2,5.2,15.4,6.4c5.2,1.2,9.4-3,9.4-3S307.8,85.4,301.8,85.3z"></path>
		<path class="st0" d="M261,88.4c0,0,8,0.9,13.5-0.5c0,0,3.4,5.7,4.7,7.8l-0.6,2.7c0,0-4.7,5.9-12.9,6.3    C265.8,104.7,259.8,96.4,261,88.4z"></path>
		<g>
			<path class="st0" d="M273.5,98.1c-1.6,0-2.9-0.7-2.9-0.7l0.6-1c0,0,2.1,1.1,4.2,0.2c1.9-0.8,3.3-2.9,4.1-6.2     c1-3.7,0.5-6.7-1.5-8.7c-2.3-2.2-6-2.4-8.6-1.7c-5.3,1.6-4.8,9.1-4.8,9.2l-1.2,0.1c0-0.1-0.6-8.5,5.6-10.4     c3.5-1.1,7.4-0.3,9.7,1.9c1.6,1.6,3.2,4.5,1.8,9.8c-1,3.7-2.6,6-4.8,7C275,98,274.2,98.1,273.5,98.1z"></path>
		</g>
		<path class="st8" d="M279.7,83.6c0,0-1-0.4-1.4,0.3c-0.4,0.7,1.3,1.3,2.7,1.2C282.5,84.9,281.2,83.9,279.7,83.6z"></path>
		<path class="st8" d="M279.7,84.6c0,0-1-0.3-1.7,0.3c-0.7,0.6,1.5,1.4,3.2,1.3C282.9,86,281.4,84.9,279.7,84.6z"></path>
		<path class="st6" d="M312,168.9c0,0-0.4,1.6-1.5,3.1c-1.1,1.5-2.7,3.4-2.9,4.2c-0.2,0.8,0.8,1.5,1.7,1.2c0.9-0.3,7.6-3.4,9.2-4.6    c1.6-1.2,2-1.7,2-1.9s-2-3.7-2.5-4.5C317.4,165.5,313.2,165.6,312,168.9z"></path>
		<path class="st8" d="M279.5,85.6c0,0-0.9-0.3-1.5,0.3c-0.6,0.6,1.4,1.5,2.9,1.3C282.4,87.1,281.7,85.7,279.5,85.6z"></path>
		<path class="st0" d="M261.9,96.7c0,0-22-5-22.8-5c-0.8,0-3.5-0.5-4.9,1.3c0,0,0.2,1.1,1.4,1.7c1.2,0.6,2.8-0.6,2.8-0.6l26.6,9.4    C265,103.6,266.7,98.9,261.9,96.7z"></path>
		<path class="st0" d="M236.4,95.3L236.4,95.3c-0.3,0-0.6-0.1-0.9-0.2c-1.3-0.7-1.6-1.9-1.6-1.9l0-0.3l0.3-0.1c0,0,0.3-0.1,0.8-0.1    c1,0,2.4,0.2,3.7,1.2l0.3,0.2l-0.3,0.2C238.6,94.5,237.5,95.3,236.4,95.3z M234.6,93.3c0.1,0.3,0.5,0.9,1.2,1.2    c0.2,0.1,0.4,0.1,0.6,0.1c0.6,0,1.2-0.3,1.6-0.5c-1.1-0.7-2.2-0.9-3-0.9C234.8,93.3,234.7,93.3,234.6,93.3z"></path>
		<polygon class="st3" points="377.3,388.3 337.7,388.3 344.4,380.6 384,380.6   "></polygon>
		<path class="st12" d="M234.2,93.1c0,0-15.6,15.6-13.5,34.2h18.9c0,0-4.7-23-1.1-33.1C238.5,94.2,236.9,92.7,234.2,93.1z"></path>
		<path class="st7" d="M310.5,105.8c0,0-15.3,12.1-17,16.2c-1.7,4.2,6.9,13.1,6.9,13.1s8.1,29,11,33.8c0,0,4.7-1.3,6.9-2.6    c0,0-2.7-26.2-4-29.7c0,0,19.8-18.5,23.2-24C340.8,107.2,312.9,103.9,310.5,105.8z"></path>
		<path class="st6" d="M320.6,153.5c0,0,0.3,1.6,0,3.4c-0.3,1.8-1,4.2-0.8,5c0.2,0.8,1.4,1,2.1,0.3c0.7-0.7,5.3-6.4,6.2-8.2    c0.9-1.8,1.1-2.4,0.9-2.6c-0.2-0.2-3.4-2.4-4.3-2.9C323.9,148.1,320.2,150,320.6,153.5z"></path>
		<path class="st4" d="M300.1,135.2c-0.2-6.5,10.6-16.8,11-17.3l0.4,0.4c-0.1,0.1-11.1,10.7-10.9,16.9L300.1,135.2z"></path>
		<path class="st7" d="M301.6,136.6l18.8,17.1c0,0,2.7-2.8,4.1-5.1c0,0-6.8-13.3-9.7-16.1C312,129.9,301.6,136.6,301.6,136.6z"></path>
		<path class="st6" d="M358.8,378c0,0-1,1.3-2.7,2.2s-3.9,1.9-4.4,2.5c-0.5,0.6,0,1.7,1,1.8s8.3,0.2,10.3-0.2s2.5-0.6,2.6-0.9    c0.1-0.3-0.2-4.1-0.4-5.1C365.1,377.2,361.3,375.5,358.8,378z"></path>
		<g>
			<g>
				<path class="st0" d="M230.4,130.6l-1.1,0c0,0,0-0.4-0.1-1.3c-0.1-0.8-0.3-2-0.6-3.4c-0.6-2.8-1.7-6.4-3.3-9.9      c-1.6-3.5-3.5-6.8-5.1-9.1c-0.8-1.2-1.5-2.1-2-2.8c-0.5-0.7-0.8-1-0.8-1l0.9-0.7c0,0,0.3,0.4,0.8,1.1c0.5,0.7,1.3,1.6,2.1,2.8      c1.7,2.4,3.6,5.7,5.2,9.3c1.6,3.5,2.8,7.3,3.4,10.1c0.3,1.4,0.5,2.6,0.6,3.5C230.3,130.1,230.4,130.6,230.4,130.6z"></path>
			</g>
			<path class="st1" d="M217.2,96.8c1.7,1.9,1.8,4.5,0.2,5.7c-1.6,1.2-4,0.9-5.5-0.8c-1.6-1.6-1.7-4.1-0.4-5.5     C212.9,94.7,215.4,95,217.2,96.8z"></path>
			<path class="st0" d="M216.5,99.2c0,0-0.4-0.3-1-0.7c-0.6-0.3-1.5-0.6-2.2-0.5c0,0.7,0.2,1.5,0.5,2.2c0.2,0.6,0.5,1.1,0.5,1.1     c-2.2,0.2-3.6,1.7-3.6,1.7c2,1.4,3.9,1.5,5.3,1.4c1.4-0.1,2.3-0.7,2.3-0.7s0.7-0.8,1.2-2.1c0.4-1.4,0.4-3.4-1-5.8     C218.5,95.6,217,96.9,216.5,99.2z"></path>
		</g>
		<path class="st6" d="M380.1,362.7c0,0,0.1,1.6-0.5,3.4c-0.6,1.8-1.6,4-1.5,4.9c0.1,0.8,1.2,1.2,2,0.6c0.8-0.6,6.2-5.6,7.3-7.2    c1.1-1.6,1.4-2.2,1.3-2.5c-0.1-0.3-3-2.9-3.8-3.5C384.1,357.8,380.1,359.1,380.1,362.7z"></path>
		<g>
			<path class="st6" d="M199.3,110.3c0,0,0.4,11.2,10.9,19.2s20.2,4.7,20.2,4.7s0.7-10.3-9.7-18.3     C210.2,107.9,199.3,110.3,199.3,110.3z"></path>
			
				<rect x="216.7" y="107.1" transform="matrix(0.6104 -0.7921 0.7921 0.6104 -13.6556 220.1882)" class="st4" width="0.6" height="33.7"></rect>
			
				<rect x="206.9" y="120.9" transform="matrix(0.9995 -3.112924e-02 3.112924e-02 0.9995 -3.6705 6.5983)" class="st4" width="6.3" height="0.6"></rect>
			
				<rect x="210.3" y="113.3" transform="matrix(0.9746 -0.224 0.224 0.9746 -20.75 50.1454)" class="st4" width="0.6" height="6.3"></rect>
			
				<rect x="213.8" y="126.2" transform="matrix(0.9995 -3.130694e-02 3.130694e-02 0.9995 -3.8533 6.8542)" class="st4" width="6.3" height="0.6"></rect>
			
				<rect x="217.2" y="118.6" transform="matrix(0.9746 -0.224 0.224 0.9746 -21.7566 51.8011)" class="st4" width="0.6" height="6.3"></rect>
			
				<rect x="220.7" y="131.5" transform="matrix(0.9995 -3.113914e-02 3.113914e-02 0.9995 -3.9949 7.0338)" class="st4" width="6.3" height="0.6"></rect>
			
				<rect x="224.1" y="123.9" transform="matrix(0.9746 -0.224 0.224 0.9746 -22.7676 53.4724)" class="st4" width="0.6" height="6.3"></rect>
		</g>
		<path class="st5" d="M247.5,110.1c0,0-8.9,0.4-15.3,8.7c-6.4,8.3-3.8,16.1-3.8,16.1s8.2,0.5,14.6-7.8    C249.4,118.8,247.5,110.1,247.5,110.1z"></path>
		<g>
			<g>
				<path class="st6" d="M179.3,129.5l5.9-9.4c-2-8.1-5.2-17.2-10.3-26.4c-4.2-7.3-9-13.4-14.2-18.5l-7.9,5.6c0,0,1-2.3,2.2-4.5      c1.1-2.2,2.2-4.5,2.2-4.5c-6.2-5.5-12.5-9.8-18.1-13c-2.9-1.6-5.4-2.9-7.7-3.9c-2.3-1-4.4-1.8-6-2.1c-1.4,1.9-2.9,4.9-4.3,9      c-0.7,2.1-1.2,4.3-1.7,6.8c-0.5,2.5-0.9,5.2-1,8c0,0,2.5,1,5,2c2.5,1,4.9,1.9,4.9,1.9s-2.5,0.1-5,0.2c-2.5,0.1-5,0.1-5,0.1      c-0.1,12,2.8,26.2,10.7,39.5c1.4,2.4,2.9,4.7,4.5,6.8c1.6,2.1,3.2,4.2,4.8,6c0,0,3.5-0.2,7-0.4c3.5-0.2,7-0.5,7-0.5l-8.8,6.4      c7.2,7,14.3,11.7,19.7,14.7c2.7,1.5,4.9,2.5,6.5,3.2c1.5,0.7,2.5,1,2.5,1l8.2-5.7l8.2-5.7c0,0,0.1-0.5,0.1-1.5      c0-1,0-2.5-0.1-4.4c-0.2-3.8-0.7-9.1-2-15.3L179.3,129.5z"></path>
			</g>
			<g>
				<path class="st4" d="M182.6,150.1c-3.1-4.5-10.8-15.8-20.1-30.4c-9.4-14.6-20.5-32.4-30.4-50.5c7.3,19.3,17.2,38.1,25.9,53.2      c8.7,15.1,16.3,26.5,19.5,31.1l2.6-1.8L182.6,150.1z"></path>
			</g>
		</g>
		<g>
			<g>
				<path class="st5" d="M190.9,139l6.2-3.7c1.2-5.2,2.1-11.4,1.8-18.2c-0.3-5.4-1.3-10.4-2.8-14.9l-6.2,0.9c0,0,1.3-1,2.6-2      c1.3-1,2.6-1.9,2.6-1.9c-2-5-4.4-9.3-6.8-12.8c-2.4-3.4-4.6-6-6.3-7.4c-2.6,1.4-7,5.4-10.7,11.8c0,0,1.2,1.3,2.3,2.6      c1.2,1.3,2.3,2.5,2.3,2.5s-1.5-0.7-3-1.3c-1.5-0.7-3-1.3-3-1.3c-3.5,6.8-5.9,15.8-5.3,25.7c0.2,3.6,0.8,7,1.6,10.1l8.3,3.6      l-6.9,1.1c2.1,6.1,4.8,10.9,7,14.2c1.1,1.6,2.1,2.9,2.8,3.7c0.7,0.8,1.1,1.3,1.1,1.3l6.4-0.8l6.4-0.8c0,0,0.7-1.2,1.7-3.4      c1-2.2,2.3-5.4,3.4-9.4L190.9,139z"></path>
			</g>
			<g>
				<path class="st4" d="M186.7,151.8c-0.4-3.5-1.5-12.2-2.6-23.4c-1.1-11.1-2.3-24.6-2.9-37.9c-1.3,13.2-1.1,26.9-0.5,38.2      c0.6,11.2,1.6,20,2.1,23.6l2-0.3L186.7,151.8z"></path>
			</g>
		</g>
		<path class="st5" d="M365.1,194.6c0,0,9.5-26.3,8.3-51.8c-1.2-25.5,6.3-44.7,18.5-43.2c12.2,1.5,22.9,47.6-23.7,97.7L365.1,194.6z    "></path>
		<path class="st4" d="M369.2,193.7l-1-0.6c0.2-0.3,17.2-27.7,17.8-57.9l1.1,0C386.5,165.7,369.4,193.4,369.2,193.7z"></path>
		<path class="st6" d="M367.2,197.8c0,0,17-8.8,34.4-10.4s29.7-8.4,27.6-16.6s-34.4-11.1-64.1,25.1L367.2,197.8z"></path>
		<path class="st4" d="M368.1,195.6l-0.7-0.9c0.2-0.1,17.4-14.4,38.1-17.7l0.2,1.1C385.3,181.4,368.3,195.5,368.1,195.6z"></path>
		<g>
			<path class="st5" d="M444,193.4c-5-0.5-11.2-1.1-18-0.8c-6.8,0.3-14.3,1.5-22.1,5c-7.8,3.5-12,9.7-14.4,15.2     c-2.4,5.4-2.9,10.1-2.9,10.1s3.6,3,9.3,5c5.7,2,13.7,2.9,21.9-1.4c8.2-4.2,14.2-10.1,18.3-16.1     C440.4,204.3,442.7,198.1,444,193.4z"></path>
			<path class="st4" d="M386.7,223l-0.1-0.3c0,0,3.1-1.2,7.7-3.2c4.6-2,10.8-4.8,16.8-7.7c6-2.9,12-6,16.4-8.5c2.2-1.2,4-2.3,5.3-3     c1.3-0.7,2-1.2,2-1.2l0.2,0.3c0,0-0.7,0.4-2,1.2c-1.3,0.7-3.1,1.8-5.3,3c-4.4,2.5-10.4,5.6-16.4,8.5c-6,2.9-12.2,5.7-16.8,7.7     C389.8,221.7,386.7,223,386.7,223z"></path>
			<path class="st4" d="M420,207.4c0-0.1-0.2-1,0.1-2.6c0.3-1.6,0.9-4,2.6-6.8l0.3,0.2c-1.6,2.8-2.3,5.1-2.5,6.7     c-0.1,0.8-0.1,1.4-0.1,1.9c0,0.4,0,0.7,0,0.7L420,207.4z"></path>
			<path class="st4" d="M411.3,211.9l0.3-0.2c0,0,0.2,0.2,0.6,0.5c0.4,0.3,1,0.7,1.9,1.2c1.7,0.9,4.5,1.8,8.4,2.1l0,0.3     c-4.1-0.3-6.8-1.2-8.6-2.1C412.2,212.8,411.4,211.9,411.3,211.9z"></path>
			<path class="st4" d="M395.2,219.3l0.3-0.2c0,0,0.2,0.3,0.7,0.6c0.4,0.4,1.1,0.9,2.1,1.4c1.9,1.1,5,2.3,9.6,2.8l0,0.3     c-4.6-0.5-7.7-1.7-9.7-2.8C396.1,220.3,395.2,219.4,395.2,219.3z"></path>
			<path class="st4" d="M402.1,216.1c0-0.1-0.2-1.5,0.3-3.9c0.5-2.4,1.7-5.8,4.3-10l0.3,0.2c-2.6,4.1-3.7,7.5-4.3,9.9     c-0.2,1.2-0.3,2.1-0.4,2.8c0,0.6,0,1,0,1L402.1,216.1z"></path>
			<path class="st4" d="M426.1,204.3l0.2-0.2c0,0,0.5,0.5,1.5,0.9c1,0.5,2.7,1,5,1l0,0.4c-2.4-0.1-4.1-0.6-5.2-1     C426.6,204.8,426.1,204.3,426.1,204.3z"></path>
		</g>
		<g>
			<path class="st6" d="M429.4,258.1c-1.9-8.2-5.6-20.6-17.1-29.9c-11.5-9.3-25.7-2.8-25.7-2.8s-2.6,15.4,9.5,24.1     C408.2,258.2,421.2,258.5,429.4,258.1z"></path>
			<polygon class="st4" points="386.6,225.5 386.7,225.3 422.3,252.5 422.2,252.8    "></polygon>
			<path class="st4" d="M411,244c0.1,0,0.7-0.5,2-0.9c1.3-0.4,3.3-0.7,6.1-0.4l0,0.3c-2.7-0.3-4.7,0-6,0.4c-0.6,0.2-1.1,0.4-1.4,0.5     c-0.3,0.2-0.5,0.3-0.5,0.3L411,244z"></path>
			<path class="st4" d="M404.5,239.1l0.3,0.1c0,0-0.1,0.2-0.2,0.6c-0.1,0.4-0.2,1-0.2,1.8c0,1.6,0.3,4,1.5,7l-0.3,0.1     c-1.2-3.1-1.5-5.5-1.5-7.2C404.2,240.1,404.5,239.2,404.5,239.1z"></path>
			<path class="st4" d="M392.7,230.1l0.3,0.1c0,0-0.1,0.3-0.2,0.7s-0.2,1.2-0.2,2.1c0,1.8,0.3,4.6,1.7,8.1l-0.3,0.1     c-1.4-3.6-1.7-6.3-1.7-8.2C392.3,231.2,392.7,230.2,392.7,230.1z"></path>
			<path class="st4" d="M397.8,233.9c0.1-0.1,1-0.7,3-1.3c2-0.6,5-1,9.1-0.6l0,0.3c-4.1-0.4-7.1,0-9,0.6c-1,0.3-1.7,0.6-2.2,0.8     c-0.5,0.2-0.7,0.4-0.7,0.4L397.8,233.9z"></path>
			<path class="st4" d="M415.5,247.5l0.3,0.1c0,0-0.2,0.5-0.2,1.5c0,1,0.2,2.4,0.9,4.2l-0.3,0.1c-0.7-1.9-0.9-3.3-0.9-4.3     C415.3,248.1,415.5,247.6,415.5,247.5z"></path>
		</g>
		<path class="st3" d="M96.5,339.2c0,0-0.4-0.6-2.7,0.5c-2.3,1-7.6,8.1-9.2,11.8c0,0,3.2,2.9,5.3,4.1c0,0,2-1.6,3.1-2.2    c0,0,0.1,6.9-0.8,10.9c-0.8,4.1-1.7,6.6-1.7,6.6s7.1,3.3,16.4,1.5c0,0,0.1-9.8,0.4-13.5c0.3-3.8,2.1-7.9,1.1-11.5    c-1-3.5-5.1-4.8-8.5-8.3L96.5,339.2z"></path>
		<path class="st8" d="M103.2,330.3c0,0-0.2-2.9-1.8-4.9c-1.6-2-5.2-1.3-6.7,1.8c-1.1,2.2-1.2,3.9-1.2,4.6c-0.3-0.2-0.8-0.4-1.4,0    c-1.1,0.7,0.6,3.4,2.2,2.9c0.4,0.9,1.4,1.7,1.4,1.7c0,2.1,0.4,2.7,0.4,2.7c1.6,1.9,3.4,3.7,4.6,2.9c1.2-0.8-0.2-2-0.7-2.6    c-0.4-0.7,0.1-1,0.1-1C103.9,338,103.2,330.3,103.2,330.3z"></path>
		<path class="st9" d="M100.6,327c0,0-1,3.6-3.1,4.4c0,0,0.7-0.7,0.8-1c0,0-2.7,2.5-4.2,2.3c0,0-1-0.4-1.3-3.8    c-0.3-3.4,3.3-5.3,3.3-5.3h4.1l2.9,3.3l0.3,2.3C103.2,329,101.4,329,100.6,327z"></path>
		<path class="st8" d="M103.5,367.5c0,0-12.6-2.2-17.2-4.7c-4.6-2.5-4-4.8-3.4-6.4c0.6-1.6,2.6-5.1,2.6-5.1l4.5,3.2l-0.1,1l-0.8,1.7    c0,0,1.5,0.9,3.7,2.1c2.2,1.2,11.1,5.3,11.1,5.3S106.1,366.6,103.5,367.5z"></path>
		<g>
			<path class="st0" d="M125.3,390.6l-2.5-13.9c-0.2-1.1-0.9-2-1.9-2.4l-15.2-6.9l0.8-1.8l15.2,6.9c1.6,0.7,2.7,2.2,3,3.9l2.5,13.9     L125.3,390.6z"></path>
		</g>
		<path class="st9" d="M132.5,382.3c0,0,3.1-2.1,4.6-2.3c1.5-0.2,2,1.4,3.1,1.2s2-1.2,2-1.2l2.2,1.2c0,0,0.2-0.6,1.8,0    c1.5,0.6,0.7,0,1.5,0.6c0.9,0.7,2.2,0.6,2.2,0.6s1.1-0.3,2.2,0c1.1,0.3,2.8-0.5,5.3,0c2.5,0.5,4.9-0.5,6.2,0    c1.3,0.5,2,2.5,3.1,1.9c1.1-0.5,2.9-1.9,2.9-1.9l1.8,3.1c0,0,0.7-1.4,1.5,0c0.9,1.4,2.9,2.3,2.9,2.3s0.4,0.3,1.1,1.4    c0.7,1.1,1.2,4,1.2,4v1.3l-33.2-1.3l-13.9-7.7L132.5,382.3z"></path>
		<g>
			<path class="st0" d="M130.1,385.8l-2.5-13.9c-0.2-1.1-0.9-2-1.9-2.4l-15.2-6.9l0.8-1.8l15.2,6.9c1.6,0.7,2.7,2.2,3,3.9l2.5,13.9     L130.1,385.8z"></path>
		</g>
		<path class="st0" d="M127.5,382.3c0,0-2.8,8.7-3.6,10.2c-0.7,1.5,1.8,6.8,1.8,6.8l26.5,13l25.9-17.9L127.5,382.3z"></path>
		<path class="st0" d="M122.5,424.7c-0.8,0-1.5-0.2-2-0.5c-1.3-0.9-1.8-2.7-1.5-6c0.5-6.5,5-24.4,5.2-25.2l1.1,0.3    c0,0.2-4.7,18.6-5.2,25c-0.2,2.8,0.1,4.4,1,5c1.4,0.9,4.7,0,10.1-2.9c10.1-5.4,17.6-10.4,17.6-10.4l0.6,0.9    c-0.1,0-7.6,5-17.7,10.5C127.5,423.6,124.5,424.7,122.5,424.7z"></path>
		<path class="st9" d="M178.1,400.3c0,0-1.6,1.8-1.7,2.9c-0.1,1.1,1.7,0,1.7,0s0.9,1.2,1.8,0.5c0.9-0.7,0-1.6,0-1.6l0.4-1.8H178.1z"></path>
		<g>
			<g>
				<path class="st0" d="M254.1,425.4l-1.5,1.2c0,0-0.5-0.6-1.3-1.8c-0.8-1.1-2-2.8-3.3-4.8c-2.7-4-6.2-9.4-9.3-15      c-3.2-5.6-6-11.4-7.9-15.8c-0.9-2.2-1.7-4.1-2.2-5.4c-0.5-1.3-0.7-2.1-0.7-2.1l1.8-0.6c0,0,0.3,0.7,0.7,2.1      c0.5,1.3,1.3,3.1,2.2,5.3c1.9,4.4,4.7,10.1,7.8,15.6c3.1,5.6,6.5,10.9,9.2,14.9c1.3,2,2.5,3.6,3.3,4.7      C253.7,424.8,254.1,425.4,254.1,425.4z"></path>
			</g>
			<path class="st1" d="M232.1,372.2c0.6,1.8,0.3,3.6-0.3,5.1c-0.6,1.5-1.8,2.8-3.3,3.3c-1.6,0.6-3.2,0.3-4.7-0.6     c-1.5-0.9-2.6-2.6-3.2-4.6c-0.1-0.5-0.3-1-0.3-1.5c0-0.5,0-1,0-1.5c0.1-1,0.3-1.9,0.7-2.6c0.7-1.6,2-2.7,3.7-3     c1.6-0.3,3.3,0.2,4.6,1.1c0.7,0.5,1.3,1.1,1.7,1.8c0.2,0.4,0.4,0.7,0.6,1.1C231.8,371.3,231.9,371.8,232.1,372.2z"></path>
			<path class="st0" d="M229.3,375.1c0,0-0.4-0.8-1.1-1.7c-0.3-0.4-0.8-0.9-1.2-1.4c-0.4-0.4-0.9-0.9-1.5-1.1     c-0.4,0.5-0.6,1.1-0.8,1.8c-0.2,0.6-0.2,1.3-0.3,1.8c-0.1,1.2,0,2.1,0,2.1c-1.8-0.6-3.4-0.7-4.7-0.6c-1.2,0.1-2,0.4-2,0.4     c2.2,4.2,5.2,5.8,7.5,6.4c2.3,0.6,4,0.2,4,0.2s1.5-0.9,3-2.7c1.4-1.9,2.7-4.7,2.6-8.7c0,0-0.8,0.2-1.9,0.7     C231.8,372.7,230.4,373.6,229.3,375.1z"></path>
		</g>
		<path class="st9" d="M182.9,403.8c0,0-1.3,2.6-1.1,3.3c0.2,0.7,1.1,0,1.1,0s1.3,0.6,2,0.3c0.7-0.3,1.8-1.7,1.8-1.7h-2.4    L182.9,403.8z"></path>
		<path class="st9" d="M189.8,421.3c0,0-5.5-0.6-5.5,0c0,0.6,0,2.3,0,2.3s-1.1-1.4-2.4,0c-1.3,1.4-1.6,3.6-1.6,3.6s-0.4,1.3-1.9,1.5    c-1.6,0.2-1.9,1.5-1.9,1.5s3.4,1.1,5.4,1.3c2,0.2,3.8,0,3.8,0s2.2-0.2,4.2,0.1c2,0.3,4.2,0.8,6.2,1c2,0.2,5.5-1.5,5.5-1.5    s6.2-0.2,8.6,0.2c2.4,0.4,5.1-0.7,5.1-0.7l0.9-2c0,0-1.8-0.4-2.9-1.9s-2.4-5.3-3.3-5.6c-0.9-0.3-3.3-2.3-3.3-2.3s-2.2-3.4-2.4-5.6    c-0.2-2.2-3.1-3.5-3.1-3.5s-1.3,0.4-2.2,2.2c-0.9,1.8-2.6,1.3-2.6,1.3s-1.1,0.2-1.8,2.1c-0.7,1.9-0.9,3.5-0.9,3.5s-2.7-0.9-4,0    C188.2,419.9,189.8,421.3,189.8,421.3z"></path>
		
			<rect x="153.4" y="410.7" transform="matrix(0.843 -0.538 0.538 0.843 -199.172 148.3305)" class="st0" width="2.2" height="9.2"></rect>
		<g>
			
				<rect x="345" y="406.4" transform="matrix(0.3592 -0.9332 0.9332 0.3592 -146.1035 602.3821)" class="st6" width="41.3" height="2.4"></rect>
		</g>
		<g>
			
				<rect x="379.3" y="387" transform="matrix(0.9332 -0.3592 0.3592 0.9332 -121.027 163.8802)" class="st6" width="2.4" height="41.3"></rect>
		</g>
		<g>
			<rect x="366.9" y="403.2" class="st6" width="12.8" height="2.4"></rect>
		</g>
		<g>
			<rect x="363.9" y="411.7" class="st6" width="18.6" height="2.4"></rect>
		</g>
		<path class="st8" d="M358.3,266.4c0,0-3.1,3-4.2,6.4c-1.1,3.3,0.5,6.2,3.6,7.1c0,0,0.7,3.5,0.6,4.7c0,0,2.3,0.6,3.6,0.5    c1.2-0.2,2.3-0.6,2.3-0.6v-5c0,0,2.3-2.1,3-4c0.7-1.9,1.3-6.7-0.9-9C364,264.1,359.5,265,358.3,266.4z"></path>
		<path class="st6" d="M324.6,251.3c0,0-0.1,0.3-1.9,0.9c-1.8,0.6-3.1,0-3.6,1.5c-0.5,1.4,0.5,4.3-0.6,4.9c-1.1,0.6-1.4,1-1.4,1    s2.8,3.6,3.7,5.1c0,0,1.3-1,1.7-2.8s3.3-0.9,4-1.5c0.7-0.6,1.4-1.5,1.4-1.5S327,252.6,324.6,251.3z"></path>
		<path class="st9" d="M362.5,269.6c0,0-3.1-2.2-3.8-4.2c-0.7-2,0.1-3.9,1.9-3.7c1.8,0.2,2.7,0.5,2.7,0.5s1.7-2.1,4.5,0.6    c2.9,2.7,2.5,6.5,2.5,6.5s3.6,1,2.2,4.4c-1.5,3.4-4.7,4.5-4.7,4.5s-0.5,2.2-1.7,2.3c-1.2,0.1-2,0.4-2,0.4l0.2-4.1    c0,0,1.2,0,1.8-1.4c0.7-1.4-1.4-1.2-1.4-1.2s-1.2-2.1-0.7-2.9C364.2,271.4,362.4,270.6,362.5,269.6z"></path>
		<path class="st8" d="M347.2,277.6c0,0-5.6-4.4-10.3-10.2c-4.7-5.8-7.7-10-7.7-10s0-2.4-1-4.5c-1-2-1.1-1.6-1.6-2.4    c-0.6-0.8-0.6,0.6,0.2,2c0.7,1.4,0.7,1.4,0.7,1.4s-1.9-3-2.6-2.9c-0.7,0.1,0.1,1.1,0.5,1.6c0.4,0.5,0.5,1.5,0.5,1.5    s-1.4-2.1-1.8-1.7c-0.5,0.4,0.5,1.6,1.3,2.6c0.8,1,0.9,2.6,1.4,3.4c0,0,6.6,17.1,16,24.5S347.2,277.6,347.2,277.6z"></path>
		<path class="st8" d="M329,257.7c0,0,0.2-1.1,0.3-1.2c0.1-0.1,0.3-1,0.5-1.6s-0.1-1.1-0.4-0.9c-0.3,0.3-1.1,1.3-1,1.9    C328.4,256.5,329,257.7,329,257.7z"></path>
		<path class="st8" d="M372.9,294.9c0,0,4.2,5.1,5.8,5.9c1.6,0.8,5.9-2.7,8.1-6.8c2.2-4.1,3.3-7.2,3.3-7.2s2.8-2.1,3.7-4    c0,0,0.3-0.9,0-1.1c-0.3-0.2-1.1,1.2-1.6,1.8c0,0,1.3-2.2,1.1-2.7c-0.2-0.5-2,2.1-2,2.1s1.4-2.6,0.9-2.7c-0.5,0-1.9,2.3-1.9,2.3    s0-1.6-0.5-1.5c-0.5,0.1-0.3,1.9-0.3,1.9s-0.5,2.3-0.8,3c-0.3,0.7-6.5,7.8-7.3,8c0,0-2.5-3.5-4.8-4.2    C374.2,289.1,372.9,294.9,372.9,294.9z"></path>
		<path class="st7" d="M351.4,310.7c0,0,5.8,61.8,6.9,67c0,0,5.5,0.7,7.4,0c0,0-0.4-37.6,0-41.5c0.4-3.9,3.8-23.6,2.5-26.3    C367,307.3,351.4,310.7,351.4,310.7z"></path>
		<path class="st7" d="M369.6,309.7c0,0,2.1,24.7,3.1,28.5c1,3.8,12.2,19.8,12.2,19.8l-4.9,5c0,0-10.1-10.3-13.1-14    c-2.9-3.7-8-19.3-8-19.3S361.9,305.8,369.6,309.7z"></path>
		<path class="st0" d="M283.1,170.1c-5.7-1.8-9.8-2.3-13.1-4.2c-3.3-1.9-6.7-3.3-9.2-3.2c-2.6,0.1-7.8-1.3-11,0    c-3.1,1.3-6.5,7.7-11.3,8.9c-4.8,1.2-16.9-1.4-20.3-3.5c-3.4-2.2-4.3-6.5-3.4-8.6c1-2.2,1.4-6,1.2-7.4c-0.2-1.4,4.9-4.2,6.7-6    c1.8-1.9,3.4-7.9-0.7-10.9c-20,4.5-38.4,13.2-54.3,25.1c0,0,0.1,1.4,1.3,3.4c1.2,2-0.7,3.1-0.6,3.7c0.1,0.6,1.1,0.5,0.2,1.6    c-0.9,1.1,0,0.9-0.8,1.7c-0.9,0.8-1.6,1.6-2.2,2c-0.6,0.4-0.4,1.6-1.6,2.9c-1.2,1.4-3.3,2.6-3.3,4.7c0,2.2-3.3,5.1-3.7,6.3    c-0.4,1.2-3.7,5.7-3.9,8.6c-0.2,2.9-0.2,6.1,0,7.8c0.2,1.8,0.3,3.7-0.1,5.9c-0.4,2.2-0.8,4.1-1,8c-0.2,3.9,1.4,5.7,5.1,6.9    s10.8,4.5,12.6,7.1c1.8,2.6,2.8,5.7,4.1,6.1c1.4,0.4,2.6,4.5,7.1,7.7c4.5,3.1,12.9,3.5,16.7,7.6s10.6,13.8,12.4,19.2    c1.8,5.4,4.7,7.4,7.8,10c3.1,2.6,7.1,5.6,10,5.8c2.9,0.2,4.1-1,4-2.1s-3.8-4.2-4.4-5c-0.6-0.8-1.8-6.1-3.5-9.8    c-1.8-3.7-2-3.9-1.4-5.7c0.6-1.8,1.8-5.7,3.5-6.7c1.8-1,3.1-0.3,4.3-2c1.2-1.7,1.6-2.7,1.5-3.8c-0.1-1.1-1.9-1.8-3.6-1.9    c-1.8-0.2-2.4-1.7-4.7-2.1c-2.4-0.4-5.7-1.4-6.5-2.7c-0.8-1.4-2.6-1.8-3.7-1.6c-1.2,0.2-4.7,0.8-7.1-1.6s-2.6-6.9-2.9-9.2    c-0.4-2.4-0.8-3.1-0.2-4.9c0.6-1.8,0.6-3.2,3.3-4.4c2.7-1.3,7.3-2.3,10,0c2.7,2.3,8.2,0.5,9.4-0.9c1.2-1.4,4.5-5.5,7.3-5.7    c2.7-0.2,7.3,0,9-1.6c1.8-1.6,8.4-4.9,9.6-7.5c1.2-2.7,5.7-10.4,5.7-12.9c0-2.5,8.2-7.4,10.6-6.6c2.4,0.8,5.5-2.9,6.7-2.9    c1.2,0,4.7,0.6,6.7-1.8c2-2.4,3.5-3.9,5.1-6.2C287.6,175.4,288.8,171.9,283.1,170.1z"></path>
		<path class="st0" d="M270.8,355.1c0,0-6.6-4.1-12.2-6.5c-5.6-2.4-9.8-10.7-11.2-12.5c-1.5-1.7-2.7-16.8,0-19.5    c2.7-2.7,5.3-7.1,7.6-10.6c2.2-3.5,3.1-5.9,2.2-7.4c-0.9-1.5-0.9-9.9,0-11.3c0.9-1.4,5.3-4.1,7.4-3.8c2.1,0.3,8.6-1.5,11.2,0    c2.7,1.5,12.7,6.8,17.2,7.1c4.4,0.3,8.9,4.1,12.4,2.1c3.5-2.1,8.8,0.3,11.8,4.7c3,4.4,6.6,9,11.6,11.9c5,2.9,4.6,5.6,7.5,6.2    c2.9,0.6,9.3,2.3,12.8,4.7c3.5,2.4,2.3,5.3-0.5,8.9c-2.9,3.5-6.5,9.2-8.8,12.7c-2.4,3.5-1.5,8.9,0,10.4c1.5,1.5,0.3,7.7-1.8,9.5    c-2.1,1.8-6.5,4.7-8.3,8c-1.8,3.3-1.6,5.7-5.7,7.1c-4.1,1.5-13.2,5.6-18.9,6.9s-10.4,1.6-14.2,4.9c-3.8,3.2-4.4,12.1-8,13.6    c-3.6,1.5-14.5,8.3-18.6,7.9c-4.1-0.4-4.1-1.3-1.8-4.3c2.4-3,8.3-8.2,11.7-13c3.4-4.8-1.1-9.4,1.9-11.4c3-1.9,3.5-7.7,4.4-9.4    C281.4,370.2,281.1,360.7,270.8,355.1z"></path>
		<path class="st0" d="M355.8,222.8c0.6,1.2,3.7,2.6,6.1,3.8c2.4,1.2,4.6-0.6,5.5-3.8c1-3.1,5.1-3.7,7.3-2.5    c2.2,1.2,4.5,1.8,6.1,1.4c1.6-0.4,4.6-1.6,4.7-1.6c-9-21.9-23.3-41-41.3-55.8c0,0-1.6,2.4-4.2,4.7c-2.6,2.4-3.2,4.1-3.9,5.5    c-0.7,1.4-2.6,7.3-1.9,9.9c0.8,2.6,0.5,4.3,3.4,6.5c2.9,2.2,5.5,2.9,4.2,6.9c-1.3,4-0.3,8.2-1.7,10.3c-1.4,2.1-1.5,6.3,1.7,9    c3.2,2.8,7.4,2.2,8.4,2.4C351.3,219.7,355.2,221.6,355.8,222.8z"></path>
		<path class="st0" d="M258.6,256c0,0,0,2.7-2,4.5c-2,1.8-3.9,4.9-2,5.3c2,0.4,6.1,1,7.1,1.6c1,0.6,6.1,3.4,7.5,2.4    c1.4-1,2.4-3.4,3.7-3.5s1.8-3.7,3-4.8c1.2-1.1,5.3-5.1,5.7-8.2c0.4-3.2,0.8-7.9,0-9.1s-6.3-2-6.9-3.5c-0.6-1.6-4.1-2.8-6.8-1.2    c-2.7,1.6-3.9,5.1-4.3,7.7C263.3,249.7,258.4,251.5,258.6,256z"></path>
		<g>
			<g>
				<path class="st0" d="M343.4,172.3l-1.6-1.2c0,0,0.5-0.6,1.3-1.9c0.8-1.2,1.9-3,3.1-5.3c2.4-4.5,5.3-10.7,7.6-17.1      c2.3-6.4,4.1-13,5.2-18c0.6-2.5,0.9-4.6,1.2-6c0.3-1.5,0.4-2.3,0.4-2.3l2,0.3c0,0-0.2,0.8-0.4,2.3c-0.3,1.5-0.6,3.6-1.3,6.1      c-1.1,5.1-3,11.7-5.3,18.2c-2.3,6.5-5.2,12.8-7.7,17.3c-1.2,2.3-2.4,4.1-3.2,5.4C344,171.6,343.4,172.3,343.4,172.3z"></path>
			</g>
			<path class="st1" d="M369.2,113.1c-0.6,4.4-4,7.4-7.5,6.8c-3.5-0.6-5.8-4.4-5.3-8.4c0.4-4,3.6-7.1,7.1-6.9     C367.1,105,369.7,108.7,369.2,113.1z"></path>
			<path class="st0" d="M365.2,114.9c0,0,0-1-0.3-2.2c-0.3-1.2-0.8-2.7-1.7-3.6c-1.1,0.8-1.9,2-2.4,3.1c-0.6,1.1-0.9,1.9-0.9,1.9     c-2.8-2.7-6.4-3-6.4-3c0.4,4.4,2.4,7.2,4.3,8.9c1.8,1.7,3.6,2.3,3.6,2.3s1.9,0.1,4.2-0.9c2.3-1,5-3.3,6.7-8     C372.2,113.5,368.8,112.9,365.2,114.9z"></path>
		</g>
		<path class="st0" d="M316.6,72.6c0,0-1.7,0.4-5,2.3c-3.3,1.9-10.8,9.3-10.8,9.3s2.7,5,6.2,7.6c0,0,4.1-1.8,5.1-2.6    c0,0,2.1,10-2.1,16.1c0,0,2.4,2.8,6.3,3.4c3.9,0.6,8.1,0.5,11.5,3c3.4,2.4,8.9,2.2,11.3,0c0,0,2-7.7,0-14.9    c-2-7.2-4.9-11.2-4.9-11.2l1.3,1c0,0,4.3-4.7,4.5-8.3c0,0-5-5.1-8.5-7c-3.5-1.9-7.4-1.3-10.4,0C318.1,72.6,316.6,72.6,316.6,72.6z    "></path>
		<path class="st8" d="M308.9,63.4c0,0.3,0.9,4.4,2.9,6.4c2,2,3.5,0.8,4.1,1c0.5,0.2,0.9,1.8,0.9,2.9c0,1.1,1.8,2.2,3.4,1    c1.6-1.2,0.8-6.8,0.8-6.8s0.9-1.9,0.2-4.4c0,0,0.8-2.1,0.2-3.3c-0.6-1.2-1.5-0.9-1.9,0c0,0-2.1-3.8-5.2-3.2    C311.2,57.6,308.4,59.2,308.9,63.4z"></path>
		<path class="st9" d="M323.2,61.1c-1-1.3-0.3-4.7-1.6-6.7c-1.3-2-4-1.3-4-1.3s-0.7-3-3.2-2.5c-2.5,0.4-4.8,3.8-4.8,3.8    s-1.3-0.4-3.7,0c-2.4,0.4-5.2,2.1-4.2,4.5c1,2.4,4.7,2.3,4.7,2.3s-1,4.8,2.5,3.4c0.1,0,0.2-0.1,0.3-0.1c-0.2-0.6-0.2-1-0.2-1.1    c-0.3-3,1-4.7,2.9-5.7l0,0l0,0c0.7-0.4,1.6-0.6,2.4-0.8c3.1-0.7,5.2,3.2,5.2,3.2c0.4-0.9,1.3-1.2,1.9,0c0.6,1.2-0.2,3.3-0.2,3.3    c0.4,1.4,0.3,2.6,0.1,3.3c0.1,0,0.3,0.1,0.4,0.1C324.8,66.8,324.2,62.4,323.2,61.1z"></path>
		<path class="st9" d="M309.1,64.5c0,0,3.8-1.6,4.1-7.3c0,0,1.2,3.5,6.3,2.9c0,0-0.4-4.7-4.6-5.9c-4.2-1.2-7.3,5.8-7.3,5.8    S307,62.8,309.1,64.5z"></path>
		<path class="st4" d="M316.1,150.1c-0.8-6.7-2.1-13.3-2.1-13.4l0.6-0.1c0,0.1,1.3,6.7,2.1,13.4L316.1,150.1z"></path>
		<path class="st8" d="M110.9,360.6c0,0,1.2,0,1.8,0.1c0.7,0.1,1.1,1,1.3,1.4c0.2,0.4-0.6,0.3-1-0.2s-0.5-0.6-0.5-0.6s-0.6-0.1-1,0    c-0.4,0.1-0.8-0.3-0.9-0.6C110.5,360.5,110.9,360.6,110.9,360.6z"></path>
		<path class="st8" d="M103.2,367.4c1,1.1,2.4,1.7,2.4,1.7c0.1,0.9,0.6,1.2,0.9,1.2c0.3,0,0.3-1.3,0.3-1.3c0.2,0.6,1.2,1.2,1.3,0.8    s0-0.9,0-0.9s0.4,0.5,0.7,0.5c0.3,0,0.7-0.3,0.5-0.9c-0.1-0.7-0.5-1.6-0.9-2.2c-0.4-0.5-0.6-1-1.5-1.2c-0.9-0.2-1.1-0.1-2.1-0.2    c-1-0.1-2.5,0-2.5,0L103.2,367.4z"></path>
		<path class="st8" d="M103.5,365.4v-0.5c0,0,2.4-0.7,2.9-0.6c0.5,0.2,0.9,0.8,1.2,1.1C107.8,365.6,103.5,365.4,103.5,365.4z"></path>
		<circle class="st7" cx="161.2" cy="427.9" r="10.3"></circle>
		<path class="st4" d="M161.2,432.5c-2.5,0-4.6-2.1-4.6-4.6c0-2.5,2.1-4.6,4.6-4.6c2.5,0,4.6,2.1,4.6,4.6    C165.8,430.4,163.7,432.5,161.2,432.5z M161.2,423.8c-2.2,0-4,1.8-4,4c0,2.2,1.8,4,4,4c2.2,0,4-1.8,4-4    C165.2,425.6,163.4,423.8,161.2,423.8z"></path>
		<path class="st0" d="M284.7,260.3c0,0-2.3,2.1-4,4.4c-1.6,2.3,2.8,1.2,4,1.4c1.2,0.2,1.4,1.9,3.7,1.3c2.3-0.6,0.2,0.1,2.3-0.6    c2.1-0.7,2.8-0.5,4.9-0.7c2.1-0.2,1.7-1.8,2.8-3.1c1.1-1.3,1.2-2.5,0-3.7c-1.2-1.2-1.9,2.3-4.2,0c-2.3-2.3-2.2-4.3-4.4-3.3    c-2.1,1-1.6,1.4-2.6,2.2C286.3,259.1,284.7,260.3,284.7,260.3z"></path>
		<path class="st6" d="M360.5,282.3c0,0-6.8,0.5-12.5-5.4c0,0-3.8,3.1-6,7.1c0,0,4.2,4.9,8.9,7.1c0,0-2.1,18-1,24.3    c0,0,7.5,1.4,12.2,1.7c4.7,0.3,10.4-1.2,10.4-1.2l-1.3-22.3l1.3,1.6c0,0,4.8-4.4,4.9-6.8c0,0-6.9-6.4-9.8-7.4    C364.5,280.1,363.3,282.5,360.5,282.3z"></path>
		<path class="st4" d="M365.7,346.4l-0.6,0c0-0.5,0.2-12.4,0.6-14.1c0.3-1.6,2.4-12.9,2.4-13l0.6,0.1c0,0.1-2.1,11.4-2.4,13    C365.9,334,365.7,346.2,365.7,346.4z"></path>
		<path class="st3" d="M276.7,434.6h-11.5c0,0-6.3-42.1,0-51C271.5,374.7,284.7,377.8,276.7,434.6z"></path>
		<path class="st3" d="M261.5,434.6h-10.2c0,0-13.4-4.2-19.9-14.4c-6.4-10.2,3.1-14.6,10.1-10.2    C248.5,414.3,261.5,434.6,261.5,434.6z"></path>
		<path class="st6" d="M265.3,434.6H259c0,0-14.9-14.7-16.8-32.5c-1.9-17.8,12.3-12,18.6,3.6c6.3,15.6,7,28.9,7,28.9H265.3z"></path>
		<path class="st3" d="M280.5,434.6h10.2c0,0,13.4-4.2,19.9-14.4c6.4-10.2-3.1-14.6-10.1-10.2C293.5,414.3,280.5,434.6,280.5,434.6z    "></path>
		<path class="st6" d="M276.7,434.6h6.3c0,0,14.9-14.7,16.8-32.5c1.9-17.8-12.3-12-18.6,3.6c-6.3,15.6-7,28.9-7,28.9H276.7z"></path>
		<polygon class="st4" points="312,247.8 312.7,246.6 313.4,247.7 314.7,248.3 313.6,249.1 312.9,250.4 312.2,249.2 310.9,248.6       "></polygon>
		<polygon class="st4" points="333.9,253 334.2,252.2 334.7,252.9 335.5,253.3 334.8,253.8 334.4,254.5 333.9,253.8 333.2,253.5       "></polygon>
		<polygon class="st4" points="337.4,242.8 337.8,242 338.2,242.7 339,243.1 338.3,243.6 337.9,244.3 337.4,243.7 336.7,243.3   "></polygon>
		<polygon class="st4" points="306.8,239 307.2,238.2 307.6,238.9 308.4,239.3 307.7,239.8 307.3,240.5 306.9,239.9 306.1,239.5       "></polygon>
		<polygon class="st4" points="311.4,266.9 311.7,266.1 312.2,266.8 313,267.2 312.3,267.7 311.9,268.4 311.4,267.8 310.7,267.4       "></polygon>
		<g>
			<path class="st4" d="M234,96.2l-0.2-0.2c0.2-0.3,0.3-0.5,0.3-0.5l0.2,0.2C234.3,95.7,234.2,95.9,234,96.2z"></path>
			<path class="st4" d="M226.5,112.3l-0.3-0.1c0-0.1,0-0.2,0.1-0.2l0.3,0.1C226.5,112.1,226.5,112.2,226.5,112.3z M226.8,110.9     l-0.3-0.1c0.1-0.4,0.2-0.8,0.3-1.1l0.3,0.1C227,110.1,226.9,110.5,226.8,110.9z M227.5,108.7l-0.3-0.1c0.1-0.4,0.3-0.7,0.4-1.1     l0.3,0.1C227.8,107.9,227.6,108.3,227.5,108.7z M228.3,106.5l-0.3-0.1c0.1-0.4,0.3-0.7,0.5-1.1l0.3,0.1     C228.6,105.7,228.5,106.1,228.3,106.5z M229.3,104.3l-0.3-0.1c0.2-0.4,0.3-0.7,0.5-1.1l0.3,0.1     C229.6,103.6,229.4,104,229.3,104.3z M230.3,102.2l-0.2-0.1c0.2-0.4,0.4-0.7,0.6-1l0.2,0.1C230.7,101.5,230.5,101.9,230.3,102.2z      M231.4,100.2l-0.2-0.1c0.2-0.4,0.4-0.7,0.6-1l0.2,0.1C231.8,99.5,231.6,99.8,231.4,100.2z M232.6,98.2l-0.2-0.2     c0.2-0.4,0.4-0.7,0.6-1l0.2,0.2C233.1,97.5,232.9,97.8,232.6,98.2z"></path>
			<path class="st4" d="M226.2,113.5l-0.3-0.1c0-0.2,0.1-0.4,0.1-0.6l0.3,0.1C226.3,113.1,226.3,113.3,226.2,113.5z"></path>
		</g>
		<g>
			<path class="st4" d="M236,96.9l-0.3-0.1c0.1-0.4,0.1-0.6,0.1-0.6l0.3,0.1C236.1,96.3,236.1,96.5,236,96.9z"></path>
			<path class="st4" d="M234.6,110.9c0-0.4,0-0.8,0-1.2l0.3,0c0,0.4,0,0.8,0,1.2L234.6,110.9z M234.8,108.6l-0.3,0     c0-0.4,0-0.8,0-1.2l0.3,0C234.8,107.8,234.8,108.2,234.8,108.6z M234.9,106.2l-0.3,0c0-0.4,0-0.8,0.1-1.2l0.3,0     C235,105.5,234.9,105.8,234.9,106.2z M235.1,103.9l-0.3,0c0-0.4,0.1-0.8,0.1-1.2l0.3,0C235.2,103.1,235.1,103.5,235.1,103.9z      M235.3,101.6l-0.3,0c0-0.4,0.1-0.8,0.1-1.2l0.3,0C235.4,100.8,235.4,101.2,235.3,101.6z M235.6,99.3l-0.3,0     c0.1-0.4,0.1-0.8,0.2-1.2l0.3,0C235.8,98.4,235.7,98.8,235.6,99.3z"></path>
			<path class="st4" d="M234.7,113.4c0-0.2,0-0.4,0-0.6l0.3,0c0,0.2,0,0.4,0,0.6L234.7,113.4z"></path>
		</g>
		<path class="st4" d="M230.2,117.4c0-0.2,0-0.4,0-0.6l0.3,0c0,0.2,0,0.4,0,0.6L230.2,117.4z M230.2,115.7c0-0.2,0-0.3,0-0.5    c0-0.2,0-0.5,0-0.7l0.3,0c0,0.2,0,0.4,0,0.7c0,0.1,0,0.3,0,0.4L230.2,115.7z M230.5,113.4l-0.3,0c0-0.4,0-0.8,0.1-1.1l0.3,0    C230.5,112.7,230.5,113.1,230.5,113.4z M230.7,111.2l-0.3,0c0-0.4,0.1-0.8,0.1-1.1l0.3,0C230.8,110.5,230.7,110.8,230.7,111.2z     M231,109l-0.3,0c0.1-0.4,0.1-0.7,0.2-1.1l0.3,0.1C231.1,108.3,231.1,108.6,231,109z M231.4,106.8l-0.3-0.1    c0.1-0.4,0.2-0.7,0.3-1.1l0.3,0.1C231.6,106.1,231.5,106.4,231.4,106.8z M232,104.6l-0.3-0.1c0.1-0.4,0.2-0.7,0.3-1.1l0.3,0.1    C232.2,103.9,232.1,104.3,232,104.6z M232.7,102.5l-0.3-0.1c0.1-0.4,0.3-0.7,0.4-1.1l0.3,0.1C232.9,101.8,232.8,102.1,232.7,102.5    z M233.4,100.4l-0.3-0.1c0.1-0.4,0.3-0.7,0.4-1l0.3,0.1C233.7,99.7,233.6,100,233.4,100.4z M234.3,98.3l-0.3-0.1    c0.3-0.7,0.5-1,0.5-1l0.2,0.1C234.8,97.3,234.6,97.7,234.3,98.3z"></path>
		<path class="st3" d="M92.8,352.5c-0.1-0.1-0.2-0.1-0.4-0.2c-2-1.3-3.8-2.7-6-3.7c-0.1,0-0.2-0.1-0.2-0.1c-0.7,1.1-1.3,2.2-1.6,3    c0,0,3.2,2.9,5.3,4.1c0,0,1.3-1.1,2.4-1.8C92.5,353.3,92.7,352.9,92.8,352.5z"></path>
	</g>
</g>
</svg>
